<?xml version="1.0" encoding="utf-8"?>
<!-- Generator: Adobe Illustrator 22.0.0, SVG Export Plug-In . SVG Version: 6.00 Build 0)  -->
<svg version="1.1" id="Layer_1" xmlns="http://www.w3.org/2000/svg" xmlns:xlink="http://www.w3.org/1999/xlink" x="0px" y="0px"
	 viewBox="0 0 524.7 100" style="enable-background:new 0 0 524.7 100;" xml:space="preserve">
<style type="text/css">
	.st0{fill:#FED20B;}
	.st1{fill:#E1B924;}
</style>
<polygon class="st0" points="52.5,0 68.7,32.9 105,38.1 78.8,63.7 84.9,99.9 52.5,82.8 20.1,99.9 26.3,63.7 0,38.1 36.3,32.9 "/>
<polygon class="st1" points="52.5,82.8 84.9,99.9 78.8,63.7 105,38.1 68.7,32.9 52.5,0 "/>
<polygon class="st0" points="157.5,0 173.7,32.9 210,38.1 183.8,63.7 189.9,99.9 157.5,82.8 125.1,99.9 131.3,63.7 105,38.1 
	141.3,32.9 "/>
<polygon class="st1" points="157.5,82.8 189.9,99.9 183.8,63.7 210,38.1 173.7,32.9 157.5,0 "/>
<polygon class="st0" points="262.5,0 278.7,32.9 315,38.1 288.8,63.7 294.9,99.9 262.5,82.8 230.1,99.9 236.3,63.7 210,38.1 
	246.3,32.9 "/>
<polygon class="st1" points="262.5,82.8 294.9,99.9 288.8,63.7 315,38.1 278.7,32.9 262.5,0 "/>
<polygon class="st0" points="367.5,0 383.7,32.9 420,38.1 393.8,63.7 399.9,99.9 367.5,82.8 335.1,99.9 341.3,63.7 315,38.1 
	351.3,32.9 "/>
<polygon class="st1" points="367.5,82.8 399.9,99.9 393.8,63.7 420,38.1 383.7,32.9 367.5,0 "/>
<polygon class="st0" points="472.5,0 488.7,32.9 525,38.1 498.8,63.7 504.9,99.9 472.5,82.8 440.1,99.9 446.3,63.7 420,38.1 
	456.3,32.9 "/>
<polygon class="st1" points="472.5,82.8 504.9,99.9 498.8,63.7 525,38.1 488.7,32.9 472.5,0 "/>
<g>
</g>
<g>
</g>
<g>
</g>
<g>
</g>
<g>
</g>
<g>
</g>
</svg>
