<?xml version="1.0" encoding="utf-8"?>
<!-- Generator: Adobe Illustrator 22.0.0, SVG Export Plug-In . SVG Version: 6.00 Build 0)  -->
<svg version="1.1" id="Layer_1" xmlns="http://www.w3.org/2000/svg" xmlns:xlink="http://www.w3.org/1999/xlink" x="0px" y="0px"
	 viewBox="0 0 1468.3 227" style="enable-background:new 0 0 1468.3 227;" xml:space="preserve">
<style type="text/css">
	.st0{fill:#253B80;}
	.st1{fill:#0066B2;}
	.st2{fill:#36495D;}
	.st3{fill:#006FCF;}
	.st4{fill:#FFFFFF;}
	.st5{fill:#F9A533;}
	.st6{fill:#F16522;}
	.st7{fill:#E41B24;}
	.st8{fill:#F89E1C;}
	.st9{filter:url(#Adobe_OpacityMaskFilter);}
	.st10{mask:url(#bluebox-55x54-b_2_);fill:#F7F7F7;}
	.st11{filter:url(#Adobe_OpacityMaskFilter_1_);}
	.st12{mask:url(#bluebox-55x54-d_2_);fill:#006FCF;}
</style>
<path id="XMLID_2_" class="st0" d="M292.5,223.2H29.7c-16.5,0-29.9-13.4-29.9-29.9V26c0-16.5,13.4-29.9,29.9-29.9h262.8
	c16.5,0,29.9,13.4,29.9,29.9v167.3C322.3,209.8,309,223.2,292.5,223.2z"/>
<path id="XMLID_4_" class="st1" d="M674.8,223.2H412c-16.5,0-29.9-13.4-29.9-29.9V26c0-16.5,13.4-29.9,29.9-29.9h262.8
	c16.5,0,29.9,13.4,29.9,29.9v167.3C704.7,209.8,691.3,223.2,674.8,223.2z"/>
<path id="XMLID_5_" class="st2" d="M1057.1,223.2H794.3c-16.5,0-29.9-13.4-29.9-29.9V26c0-16.5,13.4-29.9,29.9-29.9h262.8
	c16.5,0,29.9,13.4,29.9,29.9v167.3C1087,209.8,1073.6,223.2,1057.1,223.2z"/>
<path id="XMLID_6_" class="st3" d="M1439.4,223.2h-262.8c-16.5,0-29.9-13.4-29.9-29.9V26c0-16.5,13.4-29.9,29.9-29.9h262.8
	c16.5,0,29.9,13.4,29.9,29.9v167.3C1469.3,209.8,1455.9,223.2,1439.4,223.2z"/>
<g id="XMLID_1_">
	<path id="XMLID_57_" class="st4" d="M77.3,96c-1,6.3-5.8,6.3-10.4,6.3h-2.7L66,90.6c0.1-0.7,0.7-1.2,1.4-1.2h1.2
		c3.2,0,6.2,0,7.7,1.8C77.3,92.2,77.6,93.8,77.3,96z M75.2,79.6H57.7c-1.2,0-2.2,0.9-2.4,2.1l-7.1,45.1c-0.1,0.9,0.5,1.7,1.4,1.7H58
		c1.2,0,2.2-0.9,2.4-2.1l1.9-12.2c0.2-1.2,1.2-2.1,2.4-2.1h5.6c11.6,0,18.3-5.6,20-16.7c0.8-4.9,0-8.7-2.2-11.3
		C85.5,81.1,81.1,79.6,75.2,79.6z"/>
	<path id="XMLID_54_" class="st4" d="M116,112.2c-0.8,4.8-4.6,8-9.5,8c-2.4,0-4.4-0.8-5.6-2.3c-1.2-1.5-1.7-3.6-1.3-5.9
		c0.8-4.8,4.6-8.1,9.4-8.1c2.4,0,4.3,0.8,5.6,2.3C115.9,107.8,116.4,109.9,116,112.2z M127.8,95.8h-8.4c-0.7,0-1.3,0.5-1.4,1.2
		l-0.4,2.4l-0.6-0.9c-1.8-2.6-5.9-3.5-9.9-3.5c-9.3,0-17.2,7-18.8,16.9c-0.8,4.9,0.3,9.6,3.1,12.9c2.6,3,6.2,4.3,10.6,4.3
		c7.5,0,11.6-4.8,11.6-4.8l-0.4,2.3c-0.1,0.9,0.5,1.7,1.4,1.7h7.6c1.2,0,2.2-0.9,2.4-2.1l4.5-28.8C129.3,96.6,128.7,95.8,127.8,95.8
		z"/>
	<path id="XMLID_33_" class="st4" d="M172.6,95.8h-8.5c-0.8,0-1.6,0.4-2,1.1l-11.7,17.2l-4.9-16.5c-0.3-1-1.3-1.7-2.3-1.7h-8.3
		c-1,0-1.7,1-1.4,1.9l9.3,27.3l-8.8,12.4c-0.7,1,0,2.3,1.2,2.3h8.4c0.8,0,1.6-0.4,2-1l28.1-40.6C174.4,97.1,173.8,95.8,172.6,95.8z"
		/>
	<path id="XMLID_38_" class="st4" d="M202.6,96c-1,6.3-5.8,6.3-10.4,6.3h-2.6l1.9-11.8c0.1-0.7,0.7-1.2,1.4-1.2h1.2
		c3.2,0,6.2,0,7.7,1.8C202.7,92.2,202.9,93.8,202.6,96z M200.6,79.6H183c-1.2,0-2.2,0.9-2.4,2.1l-7.1,45.1c-0.1,0.9,0.5,1.7,1.4,1.7
		h9c0.8,0,1.6-0.6,1.7-1.4l2-12.8c0.2-1.2,1.2-2.1,2.4-2.1h5.6c11.6,0,18.3-5.6,20-16.7c0.8-4.9,0-8.7-2.2-11.3
		C210.9,81.1,206.4,79.6,200.6,79.6z"/>
	<path id="XMLID_21_" class="st4" d="M241.4,112.2c-0.8,4.8-4.6,8-9.5,8c-2.4,0-4.4-0.8-5.6-2.3c-1.2-1.5-1.7-3.6-1.3-5.9
		c0.8-4.8,4.6-8.1,9.4-8.1c2.4,0,4.3,0.8,5.6,2.3C241.2,107.8,241.7,109.9,241.4,112.2z M253.1,95.8h-8.4c-0.7,0-1.3,0.5-1.4,1.2
		l-0.4,2.4l-0.6-0.9c-1.8-2.6-5.9-3.5-9.9-3.5c-9.3,0-17.2,7-18.8,16.9c-0.8,4.9,0.3,9.6,3.1,12.9c2.6,3,6.2,4.3,10.6,4.3
		c7.5,0,11.6-4.8,11.6-4.8l-0.4,2.3c-0.1,0.9,0.5,1.7,1.4,1.7h7.6c1.2,0,2.2-0.9,2.4-2.1l4.6-28.8C254.7,96.6,254,95.8,253.1,95.8z"
		/>
	<path id="XMLID_28_" class="st4" d="M263,80.8l-7.2,45.9c-0.1,0.9,0.5,1.7,1.4,1.7h7.3c1.2,0,2.2-0.9,2.4-2.1l7.1-45.1
		c0.1-0.9-0.5-1.7-1.4-1.7h-8.1C263.7,79.6,263.1,80.1,263,80.8z"/>
</g>
<g id="XMLID_7_">
	<g id="XMLID_9_">
		<polygon id="XMLID_19_" class="st4" points="529.7,145.2 512.9,145.2 523.4,80.7 540.2,80.7 		"/>
		<path id="XMLID_18_" class="st4" d="M498.8,80.7l-16,44.4l-1.9-9.6l0,0l-5.7-29c0,0-0.7-5.8-8-5.8h-26.5l-0.3,1.1
			c0,0,8.1,1.7,17.6,7.4l14.6,56.1h17.5l26.7-64.5H498.8z"/>
		<path id="XMLID_11_" class="st4" d="M630.9,145.2h15.4l-13.4-64.5h-13.5c-6.2,0-7.8,4.8-7.8,4.8l-25.1,59.7h17.5l3.5-9.6h21.4
			L630.9,145.2z M612.4,122.4l8.8-24.1l5,24.1H612.4z"/>
		<path id="XMLID_10_" class="st4" d="M587.9,96.2l2.4-13.9c0,0-7.4-2.8-15.1-2.8c-8.3,0-28.1,3.6-28.1,21.4
			c0,16.7,23.2,16.9,23.2,25.6s-20.8,7.2-27.7,1.7l-2.5,14.5c0,0,7.5,3.6,19,3.6c11.5,0,28.8-5.9,28.8-22.1
			c0-16.8-23.4-18.3-23.4-25.6C564.3,91.3,580.7,92.3,587.9,96.2z"/>
	</g>
	<path id="XMLID_8_" class="st5" d="M480.9,115.5l-5.7-29c0,0-0.7-5.8-8-5.8h-26.5l-0.3,1.1c0,0,12.7,2.6,24.9,12.5
		C477.1,103.8,480.9,115.5,480.9,115.5z"/>
</g>
<g id="XMLID_3_">
	<rect id="XMLID_41_" x="898.6" y="61" class="st6" width="54.2" height="97.4"/>
	<path id="XMLID_40_" class="st7" d="M902.1,109.7c0-19.8,9.3-37.3,23.7-48.7c-10.5-8.3-23.8-13.2-38.3-13.2
		c-34.2,0-61.9,27.7-61.9,61.9c0,34.2,27.7,61.9,61.9,61.9c14.4,0,27.7-4.9,38.3-13.2C911.3,147,902.1,129.4,902.1,109.7"/>
	<path id="XMLID_20_" class="st8" d="M1025.9,109.7c0,34.2-27.7,61.9-61.9,61.9c-14.4,0-27.7-4.9-38.3-13.2
		c14.4-11.3,23.6-28.9,23.6-48.7s-9.2-37.3-23.6-48.7c10.5-8.3,23.8-13.2,38.3-13.2C998.2,47.7,1025.9,75.5,1025.9,109.7 M1020,148
		v-2h0.8v-0.4h-2v0.4h0.8v2H1020z M1024,148v-2.4h-0.6l-0.7,1.7l-0.7-1.7h-0.6v2.4h0.4v-1.8l0.7,1.6h0.5l0.7-1.6v1.8H1024z"/>
</g>
<g id="XMLID_63_">
	<g id="XMLID_64_" transform="translate(0 16.675)">
		<defs>
			<filter id="Adobe_OpacityMaskFilter" filterUnits="userSpaceOnUse" x="1146.8" y="33.3" width="322.3" height="132">
				<feColorMatrix  type="matrix" values="1 0 0 0 0  0 1 0 0 0  0 0 1 0 0  0 0 0 1 0"/>
			</filter>
		</defs>
		<mask maskUnits="userSpaceOnUse" x="1146.8" y="33.3" width="322.3" height="132" id="bluebox-55x54-b_2_">
			<g id="XMLID_108_" class="st9">
				<polygon id="bluebox-55x54-a_2_" class="st4" points="1146.8,33.3 1146.8,165.2 1469.1,165.2 1469.1,33.3 				"/>
			</g>
		</mask>
		<path id="XMLID_90_" class="st10" d="M1429.6,89.6h24.2V33.3H1428v9l-5.7-9h-22.5v11.4l-5-11.4h-37.2c-1.8,0-3.5,0.1-5.2,0.4
			c-1.4,0.2-2.8,0.5-4.2,1c-1.1,0.3-2.1,0.7-3.1,1.2c-1.2,0.5-2.3,1.2-3.3,1.9v-1.9v-2.5h-121.4l-3.3,9.8l-3.4-9.8h-28.3v11.5
			l-5.1-11.5h-23.1l-10.3,24.1v27.2v5h16.3l3-8.1h5.7l3.1,8.1h125.6v-8.2l6.3,8.2h34.7v-1.8v-2.3c0.9,0.6,1.8,1.1,2.8,1.5
			c0.9,0.4,1.9,0.8,2.9,1.1c1.2,0.4,2.4,0.7,3.7,0.9c2,0.4,4,0.5,5.9,0.5h20.8l3-8.1h5.7l3.1,8.1h34.8v-8.4L1429.6,89.6z
			 M1469.1,161.8v-52.8h-2.8h-197.1l-5.1,7.2l-5-7.2h-57.5v56.3h57.3l5-7.3l5.2,7.3h35.9v-12.1h-0.4c4.5,0,8.5-0.8,12.1-2.1v14.3h25
			v-8.2l6.3,8.2h108.5c3.1,0,6-0.5,8.7-1.5C1466.4,163.2,1467.8,162.6,1469.1,161.8z"/>
		<g id="XMLID_77_" transform="translate(10.3 14.223)">
			<defs>
				<filter id="Adobe_OpacityMaskFilter_1_" filterUnits="userSpaceOnUse" x="1200.1" y="103.9" width="258.9" height="38">
					<feColorMatrix  type="matrix" values="1 0 0 0 0  0 1 0 0 0  0 0 1 0 0  0 0 0 1 0"/>
				</filter>
			</defs>
			<mask maskUnits="userSpaceOnUse" x="1200.1" y="103.9" width="258.9" height="38" id="bluebox-55x54-d_2_">
				<g id="XMLID_92_" class="st11">
					<polygon id="bluebox-55x54-c_2_" class="st4" points="1459,141.9 1459,103.9 1200.1,103.9 1200.1,141.9 					"/>
				</g>
			</mask>
			<path id="XMLID_78_" class="st12" d="M1446.2,134.3h-19.5v7.6h19.2c8.2,0,13.1-5,13.1-12.1c0-6.8-4.4-10.7-11.8-10.7h-8.8
				c-2.2,0-3.7-1.4-3.7-3.6c0-2.3,1.5-3.8,3.7-3.8h16.5l3.4-7.7h-19.6c-8.2,0-13.1,5-13.1,11.8c0,7,4.6,11,11.8,11h8.7
				c2.2,0,3.7,1.4,3.7,3.7C1449.9,132.7,1448.4,134.3,1446.2,134.3z M1410.1,134.3h-19.5v7.6h19.2c8.2,0,13.1-5,13.1-12.1
				c0-6.8-4.4-10.7-11.8-10.7h-8.8c-2.2,0-3.7-1.4-3.7-3.6c0-2.3,1.5-3.8,3.7-3.8h16.5l3.4-7.7h-19.6c-8.2,0-13.1,5-13.1,11.8
				c0,7,4.6,11,11.8,11h8.7c2.2,0,3.7,1.4,3.7,3.7C1413.8,132.7,1412.2,134.3,1410.1,134.3z M1385.1,111.6v-7.7h-30.4v38h30.4v-7.7
				h-21.3v-7.6h20.8V119h-20.8v-7.4H1385.1z M1334.2,111.6c3.3,0,5,2.1,5,4.7c0,2.6-1.7,4.7-5,4.7h-10.7v-9.4H1334.2z M1323.5,128.2
				h4.3l11.3,13.7h11.3l-12.6-14c6.5-1.2,10.3-5.9,10.3-11.9c0-7.1-5-12-13.1-12h-20.6v38h9.1V128.2z M1300.3,116.6
				c0,2.6-1.6,4.7-4.8,4.7h-10.9V112h10.9C1298.7,112,1300.3,114,1300.3,116.6z M1275.4,103.9v38h9.1v-12.5h11.4
				c8.3,0,13.5-5.4,13.5-12.7c0-7.5-5-12.7-13.1-12.7H1275.4z M1262.1,141.9h11.4l-15.2-19.1l15.1-18.8h-11.1l-9.3,12l-9.3-12h-11.4
				l15.2,19l-15.1,19h11.1l9.3-12.2L1262.1,141.9z M1230.4,111.6v-7.7h-30.4v38h30.4v-7.7h-21.3v-7.6h20.8V119h-20.8v-7.4H1230.4z"
				/>
		</g>
		<path id="XMLID_65_" class="st3" d="M1417,57.7l-0.1-3.1l1.9,3.1l14.5,22.7h10.6v-38h-8.9v22l0.1,2.8l-1.7-2.8l-14.2-22h-11.2v38
			h8.9V57.7z M1380.6,56.6l2.8-7.1l2.8,7.1l3.4,8.4h-12.2L1380.6,56.6z M1395.7,80.4h10.2l-16.2-38h-12l-16.3,38h9.7l3.2-8.1h18.1
			L1395.7,80.4z M1355.9,80.4h0.5l3.7-8.1h-2.8c-6.2,0-9.9-3.9-9.9-10.6v-0.5c0-6,3.3-10.5,9.8-10.5h9.9v-8.2h-10.6
			c-11.7,0-18.1,7.9-18.1,18.7v0.7C1338.4,73,1345,80.4,1355.9,80.4z M1323.6,80.4h9.1V63.7V42.4h-9.1v21V80.4z M1304.4,50.2
			c3.3,0,5,2.1,5,4.7c0,2.6-1.7,4.7-5,4.7h-10.7v-9.4H1304.4z M1293.7,66.7h4.3l11.3,13.7h11.3l-12.6-14c6.5-1.2,10.3-5.9,10.3-11.9
			c0-7.1-5-12-13.1-12h-20.6v38h9.1V66.7z M1277.9,50.1v-7.7h-30.4v38h30.4v-7.8h-21.3v-7.5h20.8v-7.6h-20.8v-7.4H1277.9z
			 M1202.4,54.5l-0.2-10.3l10.5,36.2h8.2l10.5-36l-0.2,10v26h8.8v-38H1224l-7.2,26.9l-7.3-26.9h-16v38h8.8V54.5z M1166.1,56.6
			l2.8-7.1l2.8,7.1l3.4,8.4h-12.2L1166.1,56.6z M1181.2,80.4h10.3l-16.2-38h-12l-16.3,38h9.7l3.2-8.1h18.1L1181.2,80.4z"/>
	</g>
</g>
</svg>
