<?xml version="1.0" encoding="utf-8"?>
<!-- Generator: Adobe Illustrator 22.0.0, SVG Export Plug-In . SVG Version: 6.00 Build 0)  -->
<svg version="1.1" id="Layer_1" xmlns="http://www.w3.org/2000/svg" xmlns:xlink="http://www.w3.org/1999/xlink" x="0px" y="0px"
	 viewBox="0 0 544.7 543.1" style="enable-background:new 0 0 544.7 543.1;" xml:space="preserve">
<style type="text/css">
	.st0{clip-path:url(#SVGID_2_);}
	.st1{opacity:0.5;clip-path:url(#SVGID_4_);}
	.st2{clip-path:url(#SVGID_6_);}
	.st3{clip-path:url(#SVGID_8_);fill:url(#SVGID_9_);}
	.st4{clip-path:url(#SVGID_11_);}
	.st5{clip-path:url(#SVGID_13_);fill:url(#SVGID_14_);}
	.st6{clip-path:url(#SVGID_16_);fill:url(#SVGID_17_);}
	.st7{clip-path:url(#SVGID_19_);}
	.st8{clip-path:url(#SVGID_21_);fill:#BDE0FF;}
	.st9{clip-path:url(#SVGID_23_);fill:url(#SVGID_24_);}
	.st10{clip-path:url(#SVGID_30_);fill:url(#SVGID_31_);}
	.st11{clip-path:url(#SVGID_33_);}
	.st12{clip-path:url(#SVGID_35_);fill:#BDE0FF;}
	.st13{clip-path:url(#SVGID_33_);fill:#9A7DF8;}
	.st14{clip-path:url(#SVGID_33_);fill:#4F31E0;}
	.st15{clip-path:url(#SVGID_33_);fill:#FF1D9C;}
	.st16{opacity:0.19;clip-path:url(#SVGID_33_);}
	.st17{clip-path:url(#SVGID_37_);fill:#FF577F;}
	.st18{clip-path:url(#SVGID_39_);fill:url(#SVGID_40_);}
	.st19{clip-path:url(#SVGID_42_);fill:url(#SVGID_43_);}
	.st20{clip-path:url(#SVGID_45_);fill:#FF577F;}
	.st21{opacity:0.32;clip-path:url(#SVGID_45_);}
	.st22{clip-path:url(#SVGID_47_);fill:#FF577F;}
	.st23{opacity:0.2;clip-path:url(#SVGID_45_);}
	.st24{clip-path:url(#SVGID_49_);fill:#FF577F;}
	.st25{opacity:0.45;clip-path:url(#SVGID_45_);}
	.st26{clip-path:url(#SVGID_51_);}
	.st27{clip-path:url(#SVGID_45_);fill:#FFFFFF;}
	.st28{opacity:7.000730e-02;clip-path:url(#SVGID_45_);}
	.st29{clip-path:url(#SVGID_55_);}
	.st30{filter:url(#Adobe_OpacityMaskFilter);}
	.st31{clip-path:url(#SVGID_57_);fill:url(#SVGID_59_);}
	.st32{clip-path:url(#SVGID_57_);mask:url(#SVGID_58_);fill:url(#SVGID_60_);}
	.st33{clip-path:url(#SVGID_62_);fill:url(#SVGID_63_);}
	.st34{clip-path:url(#SVGID_65_);fill:#FF577F;}
	.st35{clip-path:url(#SVGID_67_);fill:url(#SVGID_68_);}
	.st36{clip-path:url(#SVGID_70_);}
	.st37{clip-path:url(#SVGID_72_);fill:#BDE0FF;}
	.st38{opacity:0.19;clip-path:url(#SVGID_70_);}
	.st39{clip-path:url(#SVGID_74_);fill:#FF577F;}
	.st40{clip-path:url(#SVGID_76_);fill:url(#SVGID_77_);}
	.st41{clip-path:url(#SVGID_79_);fill:url(#SVGID_80_);}
	.st42{clip-path:url(#SVGID_82_);fill:#FF577F;}
	.st43{opacity:0.32;clip-path:url(#SVGID_82_);}
	.st44{clip-path:url(#SVGID_84_);fill:#FF577F;}
	.st45{opacity:0.2;clip-path:url(#SVGID_82_);}
	.st46{clip-path:url(#SVGID_86_);fill:#FF577F;}
	.st47{opacity:0.45;clip-path:url(#SVGID_82_);}
	.st48{clip-path:url(#SVGID_88_);}
	.st49{clip-path:url(#SVGID_82_);fill:#FFFFFF;}
	.st50{opacity:7.000730e-02;clip-path:url(#SVGID_82_);}
	.st51{clip-path:url(#SVGID_92_);}
	.st52{filter:url(#Adobe_OpacityMaskFilter_1_);}
	.st53{clip-path:url(#SVGID_94_);fill:url(#SVGID_96_);}
	.st54{clip-path:url(#SVGID_94_);mask:url(#SVGID_95_);fill:url(#SVGID_97_);}
	.st55{clip-path:url(#SVGID_99_);fill:url(#SVGID_100_);}
	.st56{clip-path:url(#SVGID_102_);fill:#FF577F;}
	.st57{clip-path:url(#SVGID_104_);fill:url(#SVGID_105_);}
	.st58{clip-path:url(#SVGID_107_);fill:#FF69CF;}
	.st59{opacity:0.5;clip-path:url(#SVGID_107_);}
	.st60{clip-path:url(#SVGID_109_);}
	.st61{clip-path:url(#SVGID_111_);fill:url(#SVGID_112_);}
	.st62{clip-path:url(#SVGID_107_);fill:#A90C77;}
	.st63{clip-path:url(#SVGID_114_);}
	.st64{clip-path:url(#SVGID_116_);fill:url(#SVGID_117_);}
	.st65{clip-path:url(#SVGID_119_);}
	.st66{clip-path:url(#SVGID_121_);fill:url(#SVGID_122_);}
	.st67{opacity:0.5;clip-path:url(#SVGID_124_);}
	.st68{clip-path:url(#SVGID_126_);fill:#B975B6;}
</style>
<g>
	<defs>
		<rect id="SVGID_1_" width="544.7" height="543.1"/>
	</defs>
	<clipPath id="SVGID_2_">
		<use xlink:href="#SVGID_1_"  style="overflow:visible;"/>
	</clipPath>
	<g class="st0">
		<defs>
			<rect id="SVGID_3_" width="544.7" height="543.1"/>
		</defs>
		<clipPath id="SVGID_4_">
			<use xlink:href="#SVGID_3_"  style="overflow:visible;"/>
		</clipPath>
		<g class="st1">
			<g>
				<defs>
					<rect id="SVGID_5_" y="97.6" width="268.5" height="389.2"/>
				</defs>
				<clipPath id="SVGID_6_">
					<use xlink:href="#SVGID_5_"  style="overflow:visible;"/>
				</clipPath>
				<g class="st2">
					<defs>
						<path id="SVGID_7_" d="M180,97.6c0,0-171,149.8-179.6,277.8c-8.6,128,155.9,125.9,241.5,91.2C327.3,431.9,180,97.6,180,97.6"
							/>
					</defs>
					<clipPath id="SVGID_8_">
						<use xlink:href="#SVGID_7_"  style="overflow:visible;"/>
					</clipPath>
					
						<linearGradient id="SVGID_9_" gradientUnits="userSpaceOnUse" x1="0" y1="543.0552" x2="1" y2="543.0552" gradientTransform="matrix(268.469 0 0 -268.469 0 146094.0156)">
						<stop  offset="0" style="stop-color:#FFFFFF"/>
						<stop  offset="0.1349" style="stop-color:#FFFFFF"/>
						<stop  offset="1" style="stop-color:#BF7CFF"/>
					</linearGradient>
					<rect x="-8.3" y="97.6" class="st3" width="335.6" height="405.8"/>
				</g>
			</g>
		</g>
		<g class="st1">
			<g>
				<defs>
					<rect id="SVGID_10_" x="35.3" y="260.8" width="351.9" height="282.3"/>
				</defs>
				<clipPath id="SVGID_11_">
					<use xlink:href="#SVGID_10_"  style="overflow:visible;"/>
				</clipPath>
				<g class="st4">
					<defs>
						<path id="SVGID_12_" d="M136.6,260.8c0,0-104.1,87.6-101.2,146c2.9,58.4,50.3,56.3,50.6,73.3c0.2,17,42.3,77.2,155.9,59.9
							c140.6-21.4,143.7-111.6,145.3-173.8C388.8,303.9,136.6,260.8,136.6,260.8"/>
					</defs>
					<clipPath id="SVGID_13_">
						<use xlink:href="#SVGID_12_"  style="overflow:visible;"/>
					</clipPath>
					
						<linearGradient id="SVGID_14_" gradientUnits="userSpaceOnUse" x1="1.818989e-12" y1="543.0519" x2="1" y2="543.0519" gradientTransform="matrix(316.0985 -140.7361 -140.7361 -316.0985 76486.9141 172134.0313)">
						<stop  offset="0" style="stop-color:#FFFFFF"/>
						<stop  offset="0.1349" style="stop-color:#FFFFFF"/>
						<stop  offset="1" style="stop-color:#F468A9"/>
					</linearGradient>
					<polygon class="st5" points="-77.7,309.9 329.8,128.4 498.9,508.2 91.4,689.7 					"/>
				</g>
			</g>
		</g>
	</g>
	<g class="st0">
		<defs>
			<path id="SVGID_15_" d="M445,45.7l5.4,1.5c47.7,0,52.1-41.2,52.1-41.2c-1,0-2-0.1-3-0.1C455.5,5.9,445,45.7,445,45.7"/>
		</defs>
		<clipPath id="SVGID_16_">
			<use xlink:href="#SVGID_15_"  style="overflow:visible;"/>
		</clipPath>
		
			<radialGradient id="SVGID_17_" cx="7.275958e-12" cy="543.086" r="1" gradientTransform="matrix(35.3369 7.9468 7.9468 -35.3369 -3835.6814 19196.5684)" gradientUnits="userSpaceOnUse">
			<stop  offset="0" style="stop-color:#3996F7"/>
			<stop  offset="1" style="stop-color:#6840D5"/>
		</radialGradient>
		<polygon class="st6" points="447.8,-6.4 511.3,7.9 499.7,59.4 436.2,45.1 		"/>
	</g>
	<g class="st0">
		<defs>
			<rect id="SVGID_18_" width="544.7" height="543.1"/>
		</defs>
		<clipPath id="SVGID_19_">
			<use xlink:href="#SVGID_18_"  style="overflow:visible;"/>
		</clipPath>
		<g class="st7">
			<g>
				<defs>
					<rect id="SVGID_20_" x="445" y="6" width="57.4" height="39.8"/>
				</defs>
				<clipPath id="SVGID_21_">
					<use xlink:href="#SVGID_20_"  style="overflow:visible;"/>
				</clipPath>
				<path class="st8" d="M502.4,6L445,45.7l7.1,0.1C452.1,45.7,492.5,46,502.4,6"/>
			</g>
		</g>
	</g>
	<g class="st0">
		<defs>
			<path id="SVGID_22_" d="M141.1,261.7c-0.5-0.1-1.1-0.2-1.6-0.3c-1-0.2-1.9-0.4-2.9-0.5l77.8,122.7l70.9,24.5l131-46.8
				c0,0-4.4-0.3-5.7-3.7c0,0-61.8-165.1-86.4-173.6c-1.4-0.5-3.2-0.7-5.3-0.7C280.9,183.3,141.1,261.7,141.1,261.7"/>
		</defs>
		<clipPath id="SVGID_23_">
			<use xlink:href="#SVGID_22_"  style="overflow:visible;"/>
		</clipPath>
		
			<linearGradient id="SVGID_24_" gradientUnits="userSpaceOnUse" x1="-2.546585e-11" y1="543.1084" x2="1" y2="543.1084" gradientTransform="matrix(73.2799 -212.1413 -212.1413 -73.2799 115458.3906 40192.2617)">
			<stop  offset="0" style="stop-color:#BA0065"/>
			<stop  offset="1" style="stop-color:#63004A"/>
		</linearGradient>
		<polygon class="st9" points="67.2,384.1 166.4,97 485.6,207.2 386.4,494.4 		"/>
	</g>
	<g class="st0">
		<defs>
			<rect id="SVGID_25_" width="544.7" height="543.1"/>
		</defs>
		<clipPath id="SVGID_26_">
			<use xlink:href="#SVGID_25_"  style="overflow:visible;"/>
		</clipPath>
	</g>
	<g class="st0">
		<defs>
			<rect id="SVGID_27_" width="544.7" height="543.1"/>
		</defs>
		<clipPath id="SVGID_28_">
			<use xlink:href="#SVGID_27_"  style="overflow:visible;"/>
		</clipPath>
	</g>
	<g class="st0">
		<defs>
			<path id="SVGID_29_" d="M412.1,295.3l6,3.8c58,17.4,78.4-31,78.4-31c-9.6-3.3-18.4-4.7-26.4-4.7
				C431.7,263.4,412.1,295.3,412.1,295.3"/>
		</defs>
		<clipPath id="SVGID_30_">
			<use xlink:href="#SVGID_29_"  style="overflow:visible;"/>
		</clipPath>
		
			<radialGradient id="SVGID_31_" cx="-7.275958e-12" cy="543.086" r="1" gradientTransform="matrix(40.0859 22.5992 22.5992 -40.0859 -11803.8086 22029.5332)" gradientUnits="userSpaceOnUse">
			<stop  offset="0" style="stop-color:#3996F7"/>
			<stop  offset="1" style="stop-color:#6840D5"/>
		</radialGradient>
		<polygon class="st10" points="432.5,227.3 519.3,276.2 476.2,352.6 389.4,303.7 		"/>
	</g>
	<g class="st0">
		<defs>
			<rect id="SVGID_32_" width="544.7" height="543.1"/>
		</defs>
		<clipPath id="SVGID_33_">
			<use xlink:href="#SVGID_32_"  style="overflow:visible;"/>
		</clipPath>
		<g class="st11">
			<g>
				<defs>
					<rect id="SVGID_34_" x="412.1" y="268.1" width="84.4" height="32.4"/>
				</defs>
				<clipPath id="SVGID_35_">
					<use xlink:href="#SVGID_34_"  style="overflow:visible;"/>
				</clipPath>
				<path class="st12" d="M496.5,268.1l-84.4,27.3l8.6,2.7C420.7,298.1,469.8,313.1,496.5,268.1"/>
			</g>
		</g>
		<polygon class="st13" points="408.6,337.5 429.1,319.5 433.6,327.7 416,340.1 		"/>
		<polygon class="st14" points="164,156.4 170.5,148.8 158.1,131.5 146.3,135.3 		"/>
		<polygon class="st15" points="366.6,141 383.1,135.5 387.1,142.8 366.7,145.5 		"/>
		<g class="st16">
			<g>
				<defs>
					<rect id="SVGID_36_" x="170.7" y="355.9" width="105.8" height="23.7"/>
				</defs>
				<clipPath id="SVGID_37_">
					<use xlink:href="#SVGID_36_"  style="overflow:visible;"/>
				</clipPath>
				<path class="st17" d="M276.6,369.9c-0.3,6.4-24.2,10.7-53.4,9.5c-29.2-1.2-52.7-7.3-52.4-13.8c0.3-6.4,24.2-10.7,53.4-9.5
					C253.4,357.3,276.8,363.4,276.6,369.9"/>
			</g>
		</g>
	</g>
	<g class="st0">
		<defs>
			<path id="SVGID_38_" d="M219.6,34.6l-3.3,77.8l35.8,1.4l3.1-77.8c0.1-1.6-1.3-3-3-3.1l-29.5-1.2c0,0-0.1,0-0.1,0
				C221,31.8,219.7,33,219.6,34.6"/>
		</defs>
		<clipPath id="SVGID_39_">
			<use xlink:href="#SVGID_38_"  style="overflow:visible;"/>
		</clipPath>
		
			<linearGradient id="SVGID_40_" gradientUnits="userSpaceOnUse" x1="3.637979e-12" y1="543.0842" x2="1" y2="543.0842" gradientTransform="matrix(35.8351 1.4465 1.4465 -35.8351 -567.6519 19533.5449)">
			<stop  offset="0" style="stop-color:#CDFFFC"/>
			<stop  offset="1.065560e-07" style="stop-color:#CDFFFC"/>
			<stop  offset="1" style="stop-color:#FF577F"/>
		</linearGradient>
		<polygon class="st18" points="216.3,30.2 258.6,31.9 255.3,115.4 213,113.7 		"/>
	</g>
	<g class="st0">
		<defs>
			<path id="SVGID_41_" d="M203.5,138.6c-2.7,3.2-12.1,11-13.9,20.5c0,0-8.4,187.7-8.3,189.2c0.4,4.2-1.1,19.4,23.6,23.5
				c24.7,4.1,43.1,0.7,45.2,0c2.1-0.7,15.4-1.9,17-17.3s7.4-186,7.6-187.8c0.2-1.7-0.2-12.6-9.7-23c-9.6-10.4-13.3-19.5-13.2-22
				l-35.8-1.4C214.2,125.5,206.3,135.4,203.5,138.6"/>
		</defs>
		<clipPath id="SVGID_42_">
			<use xlink:href="#SVGID_41_"  style="overflow:visible;"/>
		</clipPath>
		
			<linearGradient id="SVGID_43_" gradientUnits="userSpaceOnUse" x1="1.818989e-12" y1="543.0767" x2="1" y2="543.0767" gradientTransform="matrix(86.3086 3.4838 3.4838 -86.3086 -1706.5565 47118.5898)">
			<stop  offset="0" style="stop-color:#CDFFFC"/>
			<stop  offset="1.065560e-07" style="stop-color:#CDFFFC"/>
			<stop  offset="1" style="stop-color:#FF577F"/>
		</linearGradient>
		<polygon class="st19" points="180.4,116.4 285.1,120.7 274.7,379.7 169.9,375.5 		"/>
	</g>
	<g class="st0">
		<defs>
			<rect id="SVGID_44_" width="544.7" height="543.1"/>
		</defs>
		<clipPath id="SVGID_45_">
			<use xlink:href="#SVGID_44_"  style="overflow:visible;"/>
		</clipPath>
		<path class="st20" d="M225.9,350.3c-11.6-0.9-27.1-0.6-42.6,8.4c2.8,6.6,9.7,11.2,21.6,13.1c24.7,4.1,43.1,0.7,45.2,0
			c1.6-0.5,10.2-1.4,14.6-9.3C248,352,237.9,351.2,225.9,350.3"/>
		<g class="st21">
			<g>
				<defs>
					<rect id="SVGID_46_" x="181.3" y="120.3" width="53" height="251.8"/>
				</defs>
				<clipPath id="SVGID_47_">
					<use xlink:href="#SVGID_46_"  style="overflow:visible;"/>
				</clipPath>
				<path class="st22" d="M214,167.7c1.1-24.7,19.4-21.8,20.3-46.7l-0.6,0l-17.8-0.7c-1.7,5.2-9.7,15.2-12.4,18.4
					c-2.7,3.2-12.1,11-13.9,20.5c0,0-8.4,187.7-8.3,189.2c0.4,4.2-1.1,19.4,23.6,23.5c0.4,0.1,0.9,0.1,1.3,0.2
					C208.1,322.7,213,189.8,214,167.7"/>
			</g>
		</g>
		<g class="st23">
			<g>
				<defs>
					<rect id="SVGID_48_" x="238.7" y="119.4" width="28.4" height="249.3"/>
				</defs>
				<clipPath id="SVGID_49_">
					<use xlink:href="#SVGID_48_"  style="overflow:visible;"/>
				</clipPath>
				<path class="st24" d="M267.1,160.4c0,0-6.8,187.7-6.9,189.2c-0.6,3.4-0.6,13.9-13.6,19c2.3-51.6,7.8-179.5,8.6-201.1
					c0.9-24.7-17.6-23.3-16.5-48.2l5.3,0.2c1.3,5.3,8.4,15.9,10.9,19.3C257.3,142.2,266.1,150.8,267.1,160.4"/>
			</g>
		</g>
		
			<rect x="230" y="99.1" transform="matrix(4.031921e-02 -0.9992 0.9992 4.031921e-02 107.5598 346.0904)" class="st20" width="7.9" height="35.9"/>
		<g class="st25">
			<g>
				<defs>
					<rect id="SVGID_50_" x="179.1" y="173.2" width="112" height="175"/>
				</defs>
				<clipPath id="SVGID_51_">
					<use xlink:href="#SVGID_50_"  style="overflow:visible;"/>
				</clipPath>
				<g class="st26">
					<defs>
						<rect id="SVGID_52_" x="179.1" y="173.2" width="112" height="175"/>
					</defs>
					<clipPath id="SVGID_53_">
						<use xlink:href="#SVGID_52_"  style="overflow:visible;"/>
					</clipPath>
					<g style="clip-path:url(#SVGID_53_);">
						
							<image style="overflow:visible;" width="112" height="175" xlink:href="53955804.png"  transform="matrix(1 0 0 1 179.1105 173.1559)">
						</image>
					</g>
				</g>
			</g>
		</g>
		<path class="st27" d="M258.3,183.6l-54.7-2.2c-0.2,5.6-5.3,10-11.4,9.8l-4.9,121.3c6.1,0.2,10.8,5,10.6,10.7l54.7,2.2
			c0.2-5.6,5.3-10,11.4-9.8l4.9-121.3C262.9,194,258.1,189.2,258.3,183.6"/>
		<path class="st20" d="M209.7,297.5c0.3,0,0.7-0.1,1.1,0c0.6,0,1,0.2,1.3,0.4c0.2,0.2,0.4,0.6,0.4,1c0,0.4-0.2,0.8-0.4,1
			c-0.3,0.3-0.9,0.5-1.4,0.5c-0.2,0-0.3,0-0.5-0.1l-0.1,1.9l-0.6,0L209.7,297.5z M210.2,299.8c0.1,0,0.3,0.1,0.5,0.1
			c0.7,0,1.2-0.3,1.2-1c0-0.6-0.4-0.9-1.1-1c-0.3,0-0.5,0-0.6,0L210.2,299.8z"/>
		<path class="st20" d="M213.4,297.6c0.3-0.1,0.7-0.1,1.1-0.1c0.6,0,1,0.2,1.3,0.4c0.2,0.2,0.3,0.5,0.3,0.9c0,0.6-0.4,1-0.9,1.2l0,0
			c0.4,0.1,0.6,0.5,0.6,1c0.1,0.7,0.2,1.1,0.3,1.3l-0.6,0c-0.1-0.1-0.2-0.5-0.3-1.1c-0.1-0.7-0.3-0.9-0.9-1l-0.6,0l-0.1,2l-0.6,0
			L213.4,297.6z M213.9,299.8l0.6,0c0.6,0,1.1-0.3,1.1-0.9c0-0.6-0.4-0.9-1-0.9c-0.3,0-0.5,0-0.6,0L213.9,299.8z"/>
		<polygon class="st20" points="219.4,300.3 217.6,300.2 217.5,301.9 219.5,302 219.5,302.5 216.9,302.4 217.1,297.7 219.6,297.8 
			219.5,298.3 217.6,298.3 217.6,299.7 219.4,299.8 		"/>
		<path class="st20" d="M224.2,300.7c0-0.7,0-1.5,0-2l0,0c-0.2,0.5-0.4,1.1-0.7,1.8l-0.9,2.3l-0.5,0l-0.7-2.3
			c-0.2-0.7-0.4-1.3-0.5-1.9l0,0c0,0.6-0.1,1.4-0.2,2.1l-0.2,2l-0.6,0l0.5-4.7l0.8,0l0.7,2.3c0.2,0.6,0.3,1.1,0.4,1.6h0
			c0.1-0.5,0.3-1,0.6-1.6l0.9-2.2l0.8,0l0.1,4.7l-0.6,0L224.2,300.7z"/>
		
			<rect x="223.8" y="300.1" transform="matrix(4.029878e-02 -0.9992 0.9992 4.029878e-02 -83.174 514.2943)" class="st20" width="4.7" height="0.6"/>
		<path class="st20" d="M228.2,298.2l-0.1,2.8c0,1.1,0.4,1.5,1,1.5c0.7,0,1.1-0.4,1.2-1.5l0.1-2.8l0.6,0l-0.1,2.7
			c-0.1,1.4-0.8,2-1.8,2c-0.9,0-1.6-0.6-1.6-2.1l0.1-2.8L228.2,298.2z"/>
		<path class="st20" d="M235.8,301.1c0-0.7,0-1.5,0-2l0,0c-0.2,0.5-0.4,1.1-0.7,1.8l-0.9,2.3l-0.5,0l-0.7-2.3
			c-0.2-0.7-0.4-1.3-0.5-1.9l0,0c0,0.6-0.1,1.4-0.2,2.1l-0.2,2l-0.6,0l0.5-4.7l0.8,0l0.7,2.3c0.2,0.6,0.3,1.1,0.4,1.6l0,0
			c0.1-0.5,0.3-1,0.6-1.6l0.9-2.2l0.8,0l0.1,4.7l-0.6,0L235.8,301.1z"/>
		<path class="st20" d="M218.3,311c-1.1-0.3-2.1-0.7-3.1-1.1c-0.2-0.1-0.3-0.1-0.5-0.1c-1.9-0.2-3.5-1.7-3.4-4.3
			c0.1-2.6,1.8-4.3,3.9-4.2c2.2,0.1,3.6,1.9,3.5,4.3c-0.1,2.1-1.1,3.4-2.5,3.9l0,0c0.8,0.2,1.7,0.5,2.3,0.6L218.3,311z M217.6,305.6
			c0.1-1.7-0.7-3.4-2.4-3.5c-1.8-0.1-2.7,1.6-2.8,3.4c-0.1,1.8,0.8,3.4,2.4,3.4C216.6,309,217.6,307.5,217.6,305.6"/>
		<path class="st20" d="M224.8,308.5c0,0.6,0,1.2,0,1.6l-0.9,0l0-1l0,0c-0.3,0.5-0.9,1.1-2,1c-0.9,0-2-0.6-1.9-2.7l0.1-3.5l1.1,0
			l-0.1,3.3c0,1.1,0.3,1.9,1.2,1.9c0.7,0,1.2-0.5,1.4-0.9c0.1-0.2,0.1-0.4,0.1-0.5l0.1-3.6l1.1,0L224.8,308.5z"/>
		<path class="st20" d="M229.8,310.3l-0.1-0.8l0,0c-0.3,0.5-1,0.8-1.8,0.8c-1.2,0-1.7-0.9-1.7-1.8c0.1-1.4,1.3-2.2,3.6-2.1l0-0.1
			c0-0.5-0.1-1.4-1.3-1.4c-0.5,0-1.1,0.1-1.5,0.4l-0.2-0.7c0.5-0.3,1.2-0.5,1.9-0.5c1.8,0.1,2.2,1.3,2.1,2.5l-0.1,2.2
			c0,0.5,0,1,0,1.4L229.8,310.3z M229.7,307.2c-1.2-0.1-2.5,0.1-2.5,1.2c0,0.7,0.4,1,1,1.1c0.8,0,1.3-0.4,1.4-0.9
			c0-0.1,0.1-0.2,0.1-0.3L229.7,307.2z"/>
		
			<rect x="228.7" y="305.5" transform="matrix(4.066158e-02 -0.9992 0.9992 4.066158e-02 -82.2403 526.4323)" class="st20" width="8.7" height="1.1"/>
		<path class="st20" d="M236.6,302.9c0,0.4-0.3,0.7-0.7,0.6c-0.4,0-0.6-0.3-0.6-0.7c0-0.4,0.3-0.7,0.7-0.6
			C236.4,302.3,236.7,302.6,236.6,302.9 M235.2,310.5l0.2-5.9l1.1,0l-0.2,5.9L235.2,310.5z"/>
		<path class="st20" d="M239.5,303l-0.1,1.7l1.5,0.1l0,0.8l-1.5-0.1l-0.1,3.2c0,0.7,0.2,1.2,0.7,1.2c0.3,0,0.5,0,0.6,0l0,0.8
			c-0.2,0.1-0.5,0.1-0.9,0.1c-0.5,0-0.9-0.2-1.1-0.5c-0.3-0.3-0.4-0.9-0.3-1.6l0.1-3.2l-0.9,0l0-0.8l0.9,0l0.1-1.4L239.5,303z"/>
		<path class="st20" d="M242.7,304.8l1.1,3.6c0.1,0.4,0.2,0.9,0.3,1.2l0,0c0.1-0.4,0.3-0.8,0.4-1.2l1.3-3.4l1.1,0l-1.8,4.2
			c-0.8,2-1.4,3-2.1,3.6c-0.5,0.4-1.1,0.6-1.3,0.6l-0.2-0.9c0.3-0.1,0.6-0.2,0.9-0.5c0.3-0.2,0.7-0.6,0.9-1.2
			c0.1-0.1,0.1-0.2,0.1-0.3c0-0.1,0-0.1-0.1-0.3l-1.9-5.6L242.7,304.8z"/>
		<path class="st20" d="M265.1,198.1c-5.8-0.2-10.3-4.8-10.1-10.1l0-0.5l-48.5-2l0,0.5c-0.2,5.4-5.1,9.5-10.8,9.3l-0.6,0l-4.6,113.3
			l0.6,0c5.8,0.2,10.3,4.8,10.1,10.1l0,0.5l48.5,2l0-0.5c0.2-5.4,5.1-9.5,10.8-9.3l0.6,0l4.6-113.3L265.1,198.1z M260,310.3
			c-5.9,0-10.9,4.3-11.4,9.8l-46.3-1.9c-0.1-5.5-4.7-10.2-10.6-10.7l4.5-111.3c5.9,0,10.9-4.3,11.4-9.8l46.3,1.9
			c0.1,5.5,4.7,10.2,10.6,10.7L260,310.3z"/>
		<path class="st20" d="M225.9,195.6c-1.4-0.6-2.8-0.3-4.1,0.4c-1.5,0.8-2.6,2.2-4,3.2c-1.3,0.9-3.6,2-4.8,0.6c-0.9-1-0.6-3.5,0.8-4
			c0.6-0.2,1.2,0.1,1.6,0.5c0.3,0.3,0.3,0.7,0.2,1.1c-0.2,0.5-1.2,0.6-1-0.1c0.1-0.5-0.6-0.8-0.8-0.3c-0.4,1.4,1.2,2,2.2,1.2
			c1-0.9,0.4-2.5-0.6-3.1c-1.1-0.7-2.3-0.3-3,0.7c-0.8,1.1-0.9,2.9-0.2,4.1c0.8,1.4,2.3,1.4,3.7,1c1.6-0.5,2.9-1.5,4.1-2.6
			c1.3-1.1,2.7-2.4,4.5-2.3c1.5,0,2.9,1.5,2.1,3c-0.5,1-1.7,1.2-2.6,0.7c-0.4-0.2-0.9-0.7-0.9-1.3c0-0.3,0.6-0.4,0.8-0.5
			c0.1,0,0.3,0,0.4,0.1c0,0,0.2,0.2,0.1,0.3c-0.3-0.1-0.7,0.2-0.5,0.6c0.2,0.4,0.8,0.4,1.1,0c0.3-0.5,0.2-1-0.1-1.4
			c-0.8-1-2.7-0.2-2.6,1c0,1.3,1.6,2.2,2.7,2.2c1.3,0,2.5-1,2.6-2.3C227.8,197.2,227,196.1,225.9,195.6"/>
		<path class="st20" d="M229.2,196.6c-0.6-1.7-2.2-2.9-3.9-3.2c-0.5-0.1-0.8,0.7-0.2,0.8c1.3,0.2,2.5,1,3.1,2.2
			c0.4,0.7,0.5,1.4,0.4,2.2c0,0.7-0.4,1.8-1.1,2.1c-0.5,0.2-0.1,0.9,0.4,0.7c0.8-0.3,1.1-1.2,1.4-1.9
			C229.6,198.5,229.5,197.5,229.2,196.6"/>
		<path class="st20" d="M235.1,195.9c1.4-0.5,2.9,0,4.1,0.8c1.4,0.9,2.4,2.4,3.7,3.5c1.2,1,3.4,2.3,4.7,1c1-0.9,0.9-3.4-0.4-4.1
			c-0.6-0.3-1.2,0-1.6,0.4c-0.3,0.3-0.3,0.7-0.3,1.1c0.1,0.6,1.1,0.7,1,0c-0.1-0.5,0.7-0.7,0.8-0.2c0.3,1.4-1.4,1.9-2.2,1
			c-0.9-1-0.2-2.5,0.8-3c1.1-0.6,2.3-0.1,3,1c0.7,1.2,0.6,2.9-0.1,4.1c-0.9,1.3-2.4,1.2-3.8,0.7c-1.6-0.6-2.8-1.7-3.9-2.9
			c-1.2-1.2-2.5-2.6-4.3-2.7c-1.5-0.1-3,1.3-2.3,2.8c0.5,1,1.6,1.3,2.6,0.9c0.5-0.2,0.9-0.6,1-1.2c0-0.3-0.5-0.5-0.8-0.5
			c-0.1,0-0.3,0-0.4,0.1c0,0-0.2,0.2-0.2,0.3c0.3-0.1,0.7,0.3,0.4,0.6c-0.3,0.4-0.8,0.3-1.1-0.1c-0.3-0.5-0.2-1,0.2-1.4
			c0.9-0.9,2.7,0,2.5,1.2c-0.1,1.3-1.8,2.1-2.9,2c-1.3-0.1-2.4-1.2-2.4-2.5C233,197.4,233.9,196.4,235.1,195.9"/>
		<path class="st20" d="M231.6,196.7c0.7-1.7,2.4-2.7,4.1-2.9c0.5-0.1,0.7,0.8,0.2,0.8c-1.3,0.1-2.6,0.8-3.3,1.9
			c-0.4,0.6-0.6,1.4-0.6,2.1c0,0.7,0.2,1.8,0.9,2.2c0.5,0.2,0,0.9-0.4,0.7c-0.7-0.4-1-1.3-1.2-2
			C231.1,198.6,231.2,197.6,231.6,196.7"/>
		<path class="st20" d="M230.1,192.8l-0.3,8.2c0,0.5,0.8,0.6,0.8,0l0.3-8.2C231,192.3,230.2,192.3,230.1,192.8"/>
		<path class="st20" d="M229.3,193.5c-0.3-0.5-0.6-1-1-1.4c-0.4-0.4-1,0.2-0.6,0.6c0.4,0.4,0.7,0.8,0.9,1.2
			C228.8,194.4,229.6,194,229.3,193.5"/>
		<path class="st20" d="M231.1,191.1L231.1,191.1c0-0.1,0-0.1,0-0.1c0,0,0-0.1,0-0.1c0,0,0-0.1,0,0c0-0.1,0-0.2,0-0.3
			c0-0.1-0.1-0.2-0.2-0.2c-0.2-0.1-0.5,0-0.5,0.3c0,0.2-0.1,0.5,0,0.7c0,0.2,0.3,0.4,0.5,0.3C231,191.5,231.2,191.3,231.1,191.1"/>
		<path class="st20" d="M232.8,191.8c-0.5,0.4-0.9,0.9-1.1,1.5c-0.2,0.5,0.6,0.8,0.8,0.3c0.2-0.5,0.5-0.9,0.9-1.2
			C233.8,192.1,233.2,191.5,232.8,191.8"/>
		<polygon class="st20" points="218.9,205 219.4,206.1 220.6,206.3 219.7,207.2 219.8,208.4 218.8,207.8 217.6,208.3 217.9,207.1 
			217,206.2 218.3,206.1 		"/>
		<polygon class="st20" points="223.9,205.2 224.5,206.3 225.7,206.6 224.8,207.4 224.9,208.6 223.8,208 222.7,208.5 223,207.3 
			222.1,206.4 223.3,206.3 		"/>
		<polygon class="st20" points="236.2,205.7 236.7,206.8 237.9,207 237,207.9 237.2,209.1 236.1,208.5 235,209 235.2,207.8 
			234.4,206.9 235.6,206.8 		"/>
		<polygon class="st20" points="241.3,205.9 241.8,207 243,207.3 242.1,208.1 242.2,209.3 241.2,208.7 240,209.2 240.3,208 
			239.4,207.1 240.7,207 		"/>
		<polygon class="st20" points="230.2,203.1 231,205 233.1,205.4 231.5,206.8 231.8,208.9 230,207.8 228.1,208.8 228.5,206.7 
			227,205.1 229.2,204.9 		"/>
		<path class="st20" d="M205.9,232.7l-3.7-18l2.4,0.1l1.7,9.1c0.4,2.2,0.8,4.5,1,6.2l0.1,0c0.4-1.8,1-3.8,1.7-6.1l2.7-8.9l2.4,0.1
			l1.8,9.1c0.4,2.1,0.8,4.3,1,6.1l0.1,0c0.4-1.9,1-3.9,1.6-6.1l2.7-8.9l2.3,0.1l-5.7,17.6l-2.4-0.1l-1.8-9.3c-0.5-2.3-0.7-4-0.9-5.9
			l-0.1,0c-0.4,1.8-0.8,3.5-1.6,5.7l-2.9,9.2L205.9,232.7z"/>
		<path class="st20" d="M227.6,217.2c0,0.8-0.6,1.4-1.5,1.4c-0.8,0-1.3-0.7-1.3-1.5c0-0.8,0.7-1.4,1.5-1.4
			C227.1,215.7,227.6,216.4,227.6,217.2 M224.4,233.4l0.5-12.8l2.3,0.1l-0.5,12.8L224.4,233.4z"/>
		<path class="st20" d="M230.8,224.4c0.1-1.3,0.1-2.4,0-3.5l2,0.1l0,2.1l0.1,0c0.7-1.2,2.2-2.3,4.2-2.2c1.7,0.1,4.4,1.2,4.2,5.6
			l-0.3,7.6l-2.3-0.1l0.3-7.4c0.1-2.1-0.6-3.8-2.7-3.9c-1.5-0.1-2.7,1-3.1,2.3c-0.1,0.3-0.2,0.7-0.2,1.1l-0.3,7.7l-2.3-0.1
			L230.8,224.4z"/>
		<path class="st20" d="M246.3,228.4c-0.1,3.1,1.8,4.5,4.1,4.6c1.6,0.1,2.6-0.2,3.5-0.5l0.3,1.7c-0.8,0.3-2.2,0.7-4.2,0.6
			c-3.8-0.2-6-2.8-5.9-6.7c0.2-3.9,2.5-6.8,6.1-6.6c4.1,0.2,5,3.9,4.9,6.2c0,0.5-0.1,0.8-0.1,1.1L246.3,228.4z M253,227
			c0.1-1.5-0.4-3.8-3-3.9c-2.3-0.1-3.4,2-3.6,3.6L253,227z"/>
		<path class="st20" d="M224.2,251.3c0,0,0-0.1,0-0.1c0.2-0.1,0.4-0.1,0.7-0.2c-0.1-0.1-0.3-0.2-0.4-0.3c0.2-0.1,0.3-0.1,0.5-0.2
			c-0.1-0.1-0.2-0.2-0.4-0.3c0.3-0.4,0.5-0.7,0.8-1.1c-0.4,0-0.7,0-0.8,0c-0.1-0.3-0.1-0.6-0.2-0.8c0-0.2,0-0.4,0-0.7
			c0-0.3,0.1-0.5,0.1-0.8c-0.3,0.3-0.6,0.5-0.8,0.7c0,0-0.1,0-0.1,0c0-0.3,0.1-0.5,0.1-0.8c0-0.2-0.1-0.4-0.2-0.7
			c-0.1,0-0.3,0.1-0.5,0.2c0.2-0.4,0.3-0.8,0.4-1.2c-0.1,0-0.1-0.1-0.2-0.1c-0.4,0.4-0.7,0.9-1.1,1.3c-0.1,0.1-0.3,0.1-0.4,0.2
			c-0.1,0.1-0.3,0.2-0.4,0.4c-0.2,0.3-0.3,0.6-0.4,0.9c-0.2,0.3-0.4,0.5-0.8,0.3c-0.3-0.2-0.2-0.5,0-0.8c0.2-0.3,0.5-0.5,0.8-0.8
			c0.1-0.1,0.1-0.2,0.1-0.3c-0.1,0-0.2-0.1-0.4-0.1c0.1-0.2,0.2-0.4,0.3-0.6c0.2-0.3,0.2-0.5-0.2-0.5c0.1-0.2,0.2-0.4,0.3-0.7
			c-0.2,0-0.3,0.1-0.5,0.1c0.1-0.2,0.2-0.4,0.2-0.6c-0.1,0-0.3,0-0.4,0c-0.2-0.3-0.3-0.6-0.5-0.9c-0.2,0.4-0.3,0.8-0.5,1.2
			c0,0-0.1,0-0.1,0c0-0.1-0.1-0.2-0.1-0.3c0.1-0.4-0.3-0.5-0.5-0.7c-0.2-0.2-0.4-0.3-0.7-0.4c-0.1,0.1-0.1,0.3-0.2,0.5
			c-0.1-0.2-0.2-0.3-0.3-0.4c0,0,0,0.1,0,0.1c-0.3-0.1-0.6-0.3-1-0.4c0,0.2-0.1,0.4-0.2,0.7c-0.3-0.2-0.6-0.4-0.9-0.7
			c0,0.1-0.1,0.2-0.1,0.3c-0.2-0.2-0.5-0.3-0.6,0c-0.5-0.1-0.9-0.3-1.4-0.4c-0.2-0.1-0.3,0.1-0.2,0.3c0.2,0.3,0.3,0.6,0.4,0.8
			c-0.2,0.4-0.3,0.6-0.4,0.9c0.3,0.4,1.4,0.5,0.8,1.5c-0.2-0.2-0.3-0.6-0.6-0.1c0,0-0.3,0-0.4-0.1c-0.2-0.1-0.4-0.3-0.6-0.5
			c0,0-0.1,0-0.1,0.1c0,0.4,0,0.9,0,1.3c0,0-0.1,0-0.1,0.1c-0.2-0.2-0.3-0.3-0.5-0.5c-0.1,0-0.2,0.1-0.3,0.3c-0.3-0.3-0.6-0.6-1-1
			c0,0.3,0.1,0.5,0.1,0.9c-0.2-0.2-0.3-0.3-0.4-0.3c0,0,0,0.1,0,0.1c-0.2-0.1-0.4-0.2-0.6-0.1c-0.2,0-0.3,0.2-0.5,0.3
			c-0.1,0-0.2-0.2-0.4-0.2c-0.1,0-0.2,0.2-0.3,0.5c-0.3-0.2-0.6-0.4-0.9-0.6c0,0.1-0.1,0.2-0.1,0.2c0.1,0.3,0.5,0.6,0.1,1
			c0,0,0,0.1,0,0.1c0.4,0.5,0,0.7-0.4,0.9c0.3,0.1,0.5,0.3,0.8,0.4c-0.3,0.2-0.5,0.3-0.8,0.5c0.2,0.1,0.4,0.3,0.6,0.4
			c-0.2,0.1-0.3,0.1-0.5,0.2c0.3,0.2,0.5,0.3,0.8,0.5c-1.1,0.8,0.4,0.5,0.3,1c-0.2,0.1-0.5,0.2-0.8,0.4c0.3,0.1,0.5,0.2,0.7,0.3
			c0.1,0.1,0.2,0.2,0.3,0.4c0.1,0.1,0.2,0.2,0.3,0.2c0.2,0.1,0.4,0.1,0.7,0.3c-0.4,0.3-0.9,0.6-1.3,0.8c0,0,0,0.1,0,0.1
			c0.7,0.1,0.8,0.6,0.9,1.1c0.2,0,0.4,0.1,0.6,0.1c0,0,0,0.1,0,0.1c-0.2,0-0.4,0-0.6,0.1c0.1,0.1,0.1,0.2,0.2,0.4
			c-0.2,0.1-0.5,0.1-0.7,0.2c-0.1,0.1-0.2,0.3-0.3,0.5c0,0,0.1,0.1,0.1,0.1c-0.2,0.1-0.4,0.2-0.7,0.4c0.1,0.1,0.2,0.1,0.4,0.2
			c-0.3,0.2-0.6,0.5-1,0.7c0.4,0.3,1.1-0.3,1.1,0.5c0.2,0,0.4,0,0.7-0.1c-0.1,0.3-0.1,0.5-0.2,0.8c0.3-0.1,0.5-0.2,0.8-0.3
			c-0.1,0.8-0.1,0.8,0.5,0.6c0.2,0,0.3-0.1,0.5-0.1c0,0.4,0,0.7,0,1c0.3,0.1,0.5,0.1,0.8,0.2c0,0,0.1,0.2,0.1,0.4
			c0.2-0.2,0.3-0.3,0.4-0.5c0,0,0.1,0,0.1,0c0,0.4,0,0.8,0.1,1.2c0.1,0,0.1,0.1,0.2,0.1c0.2-0.2,0.4-0.4,0.6-0.6c0,0,0,0.1,0,0.1
			c0.3,0,0.6,0.1,0.8,0c0.1,0,0.1-0.3,0.2-0.5c0.2-0.5,0.3-0.9,0.5-1.4c0.1-0.1,0.2-0.2,0.4-0.3c0.1,0.9-0.3,1.5-0.8,2.1
			c0.5,0.4,0.1,1,0.3,1.6c0.6,0,0.5-0.7,1-0.9c0.5,0.4,0.4-0.3,0.6-0.4c0.1,0.3,0.2,0.5,0.3,0.8c0.1-0.3,0.2-0.5,0.3-0.7
			c0.2,0.1,0.3,0.2,0.6,0.3c0.1-0.4,0.2-0.7,0.2-1c0.2,0.1,0.4,0.3,0.5-0.1c0.5,0.5,0.5,0.5,0.9-0.1c0.2-0.3,0.4-0.5,0.6-0.7
			c0.1,0.1,0.3,0.2,0.5,0.3c0-0.3,0-0.5,0-0.8c0-0.1,0.1-0.3,0.2-0.4c0.1,0,0.3,0.1,0.4,0.1c0.1,0,0.2,0.1,0.3,0.2
			c0-0.1,0.1-0.3,0-0.4c0-0.2-0.1-0.4-0.1-0.6c0.2,0,0.3,0,0.5,0.1c-0.1-0.2-0.2-0.4-0.2-0.7c0.3-0.1,0.5-0.1,0.8-0.2
			c-0.2-0.1-0.3-0.1-0.5-0.2c0.2-0.1,0.3-0.1,0.4-0.2c-0.1-0.2-0.1-0.3-0.2-0.4c-0.3-0.2-0.6-0.5-0.9-0.7c-0.4-0.2-0.8-0.3-1.2-0.5
			c-0.5-0.2-0.6-0.4-0.5-1c2.1,1.5,4.1,3,6.2,4.5c0.1-0.1,0.1-0.2,0.1-0.2c0.2-0.4-0.1-0.6-0.4-0.8c-1.6-1.1-3.3-2.3-4.9-3.4
			c-0.1-0.1-0.3-0.2-0.4-0.3c0-0.1,0-0.1,0-0.2c0.3,0.1,0.6,0.1,0.9,0.2c0.6,0.2,1.2,0.5,1.8,0.6c0.6,0.1,0.8-0.2,0.5-0.8
			c-0.1-0.3,0-0.4,0.2-0.5c0.4-0.1,0.8-0.1,1.3-0.2c-0.2-0.1-0.3-0.2-0.5-0.4c0.3,0,0.6-0.1,0.8-0.1c0.1-0.2,0.2-0.3,0.3-0.5
			c0,0-0.1-0.1-0.2-0.2c0.3-0.2,0.7-0.3,1-0.5C225,251.6,224.6,251.4,224.2,251.3 M213,254.7c0,0.4-0.2,0.5-0.5,0.6
			c-0.1,0-0.3,0-0.5,0c-0.5-0.1-0.9-0.3-1.4-0.5c0.6-0.3,1.2-0.6,1.8-0.5C212.7,254.2,213,254.3,213,254.7 M216.2,249.1
			c-0.3,0.2-0.6,0.1-0.7-0.2c-0.2-0.5-0.2-0.9-0.3-1.4l0.2-0.1c0.3,0.3,0.7,0.6,1,0.9C216.6,248.5,216.5,249,216.2,249.1"/>
		<path class="st20" d="M232.1,252.4c0.2,0.1,0.4,0.3,0.7,0.4c-0.1,0.1-0.1,0.1-0.1,0.1c0.1,0.1,0.1,0.2,0.2,0.3
			c0.1,0,0.3,0.1,0.5,0.1c-0.1,0.1-0.2,0.2-0.4,0.2c0.3,0.1,0.6,0.1,0.8,0.2c0.2,0,0.2,0.1,0.1,0.3c-0.2,0.4-0.1,0.6,0.3,0.5
			c0.4-0.1,0.8-0.2,1.3-0.3c0.2-0.1,0.4-0.1,0.6-0.1c0,0,0,0.1,0,0.1c-0.1,0.1-0.2,0.1-0.3,0.2c-1.2,0.7-2.3,1.4-3.5,2.1
			c-0.2,0.1-0.4,0.2-0.3,0.5c0,0.1,0.1,0.1,0.1,0.2c1.5-0.9,3-1.8,4.4-2.7c0,0.5,0,0.6-0.4,0.7c-0.3,0.1-0.5,0.2-0.8,0.3
			c-0.2,0.1-0.5,0.3-0.7,0.4c-0.1,0.1-0.1,0.2-0.2,0.3c0.1,0.1,0.2,0.1,0.3,0.2c-0.1,0-0.2,0.1-0.3,0.1c0.2,0.1,0.3,0.1,0.5,0.2
			c-0.1,0.2-0.1,0.3-0.2,0.4c0.1,0,0.2,0,0.3,0c0,0.2-0.1,0.3-0.1,0.4c0,0.1,0,0.2,0,0.3c0.1,0,0.2-0.1,0.2-0.1
			c0.1,0,0.2-0.1,0.3-0.1c0.1,0.1,0.1,0.2,0.1,0.3c0,0.2,0,0.3-0.1,0.5c0.1-0.1,0.2-0.1,0.3-0.2c0.1,0.2,0.3,0.3,0.4,0.5
			c0.2,0.4,0.2,0.4,0.6,0.1c0,0.3,0.2,0.2,0.4,0.1c0,0.2,0.1,0.5,0.1,0.7c0.2-0.1,0.3-0.1,0.4-0.2c0,0.2,0.1,0.3,0.1,0.5
			c0.1-0.2,0.2-0.3,0.3-0.5c0.2,0.1,0.1,0.6,0.4,0.3c0.3,0.1,0.2,0.6,0.6,0.6c0.1-0.4-0.1-0.8,0.3-1.1c-0.3-0.4-0.5-0.9-0.4-1.5
			c0.1,0.1,0.2,0.1,0.2,0.2c0.1,0.3,0.2,0.6,0.2,1c0,0.1,0,0.3,0.1,0.3c0.2,0,0.4,0,0.6,0c0,0,0-0.1,0-0.1c0.1,0.1,0.3,0.3,0.4,0.4
			c0,0,0.1,0,0.1-0.1c0-0.3,0.1-0.5,0.1-0.8l0.1,0c0.1,0.1,0.2,0.2,0.3,0.3c0-0.1,0.1-0.2,0.1-0.2c0.2,0,0.4,0,0.6-0.1
			c0-0.2,0-0.4,0.1-0.7c0.1,0,0.3,0.1,0.4,0.1c0.4,0.2,0.4,0.1,0.4-0.4c0.2,0.1,0.3,0.2,0.5,0.3c0-0.2-0.1-0.4-0.1-0.5
			c0.2,0,0.3,0.1,0.5,0.1c0.1-0.5,0.5-0.1,0.8-0.3c-0.2-0.2-0.4-0.4-0.6-0.6c0.1,0,0.2-0.1,0.3-0.1c-0.2-0.1-0.3-0.2-0.4-0.3
			c0,0,0.1,0,0.1-0.1c-0.1-0.1-0.1-0.3-0.2-0.3c-0.1-0.1-0.3-0.1-0.4-0.2c0.1-0.1,0.1-0.2,0.2-0.2c-0.2,0-0.3,0-0.4-0.1
			c0,0,0-0.1,0-0.1l0.4,0c0.1-0.3,0.2-0.7,0.7-0.7c0,0,0-0.1,0-0.1c-0.3-0.2-0.6-0.4-0.9-0.6c0.2-0.1,0.4-0.1,0.5-0.1
			c0.1,0,0.1-0.1,0.2-0.1c0.1-0.1,0.1-0.2,0.2-0.2c0.1-0.1,0.2-0.1,0.5-0.2c-0.2-0.1-0.4-0.3-0.5-0.3c-0.1-0.3,0.9,0,0.3-0.6
			c0.2-0.1,0.4-0.2,0.6-0.3c-0.1-0.1-0.2-0.1-0.3-0.2c0.2-0.1,0.3-0.2,0.4-0.3c-0.2-0.1-0.3-0.2-0.5-0.4c0.2-0.1,0.4-0.2,0.6-0.2
			c-0.3-0.1-0.5-0.3-0.2-0.6c0,0,0,0,0-0.1c-0.3-0.3,0-0.5,0.1-0.7c0-0.1-0.1-0.1-0.1-0.2c-0.2,0.1-0.4,0.2-0.6,0.3
			c-0.1-0.2-0.1-0.3-0.2-0.4c-0.1,0-0.2,0.1-0.3,0.1c-0.1-0.1-0.2-0.2-0.3-0.3c-0.1,0-0.3,0-0.4,0.1c0,0,0,0,0-0.1
			c-0.1,0.1-0.1,0.1-0.3,0.2c0-0.2,0.1-0.4,0.1-0.6c-0.3,0.2-0.5,0.4-0.7,0.6c-0.1-0.1-0.2-0.2-0.2-0.2c-0.1,0.1-0.2,0.2-0.4,0.3
			c0,0-0.1,0-0.1,0c0-0.3,0.1-0.6,0.1-0.9c0,0-0.1,0-0.1,0c-0.2,0.1-0.3,0.2-0.5,0.3c-0.1,0-0.3,0.1-0.3,0.1c-0.1-0.3-0.3-0.1-0.4,0
			c-0.4-0.7,0.4-0.7,0.6-1c-0.1-0.2-0.1-0.4-0.2-0.6c0.1-0.1,0.2-0.3,0.4-0.5c0.1-0.1,0.1-0.2-0.1-0.2c-0.3,0-0.6,0.1-0.9,0.2
			c-0.1-0.2-0.2-0.2-0.4-0.1c0-0.1-0.1-0.1-0.1-0.2c-0.2,0.1-0.4,0.3-0.7,0.4c0-0.2-0.1-0.3-0.1-0.5c-0.3,0.1-0.5,0.2-0.7,0.2
			c0,0,0,0,0-0.1c-0.1,0.1-0.2,0.2-0.3,0.3c-0.1-0.2-0.1-0.3-0.1-0.4c-0.2,0.1-0.4,0.1-0.5,0.2c-0.2,0.1-0.4,0.1-0.4,0.4
			c0,0,0,0.1-0.1,0.2c0,0-0.1,0-0.1,0c-0.1-0.3-0.2-0.5-0.2-0.8c-0.2,0.2-0.3,0.4-0.4,0.6c-0.1,0-0.2,0-0.3,0c0,0.1,0.1,0.2,0.1,0.4
			c-0.1,0-0.2-0.1-0.3-0.1c0.1,0.2,0.1,0.3,0.1,0.5c-0.3,0-0.3,0.1-0.2,0.3c0.1,0.1,0.1,0.3,0.2,0.4c-0.1,0-0.2,0-0.3,0.1
			c0,0.1,0,0.2,0.1,0.2c0.2,0.2,0.3,0.4,0.5,0.6c0.1,0.2,0.2,0.4,0,0.5c-0.2,0.1-0.4,0-0.5-0.2c-0.1-0.2-0.1-0.4-0.2-0.7
			c0-0.1-0.1-0.2-0.2-0.3c-0.1-0.1-0.2-0.1-0.2-0.2c-0.2-0.3-0.4-0.6-0.7-1c0,0-0.1,0-0.1,0.1c0.1,0.3,0.1,0.5,0.2,0.8
			c-0.2-0.1-0.3-0.1-0.4-0.1c-0.1,0.2-0.2,0.3-0.2,0.4c0,0.2,0,0.4,0,0.5c0,0,0,0-0.1,0c-0.2-0.2-0.3-0.3-0.5-0.5
			c0,0.2,0.1,0.4,0.1,0.6c0,0.1,0,0.3,0,0.4c0,0.2-0.1,0.3-0.2,0.5c-0.1,0-0.3,0-0.6,0c0.2,0.3,0.3,0.5,0.5,0.8
			c-0.1,0.1-0.2,0.1-0.3,0.2c0.1,0.1,0.2,0.1,0.3,0.2c-0.1,0.1-0.2,0.1-0.3,0.2c0.2,0.1,0.3,0.1,0.4,0.2c0,0,0,0.1,0,0.1
			C232.7,252.3,232.4,252.3,232.1,252.4 M240.8,254.8c0.5,0,0.8,0.2,1.2,0.5c-0.3,0.1-0.7,0.2-1,0.2c-0.1,0-0.2,0-0.3,0
			c-0.2,0-0.3-0.2-0.3-0.4C240.4,254.8,240.6,254.8,240.8,254.8 M238.4,250.6c0.2-0.2,0.5-0.4,0.7-0.6c0,0,0.1,0,0.1,0.1
			c-0.1,0.3-0.2,0.6-0.3,0.9c-0.1,0.2-0.3,0.2-0.5,0.1C238.3,251,238.3,250.7,238.4,250.6"/>
		<path class="st20" d="M238.5,283.7c0.5,1.7-0.5,3.5-2.2,4c-1.7,0.5-3.5-0.5-4-2.2c-0.5-1.7,0.5-3.5,2.2-4
			C236.3,280.9,238.1,281.9,238.5,283.7"/>
		<path class="st20" d="M232.6,260.7c-0.3,2-2.3,3.4-4.3,3.1c-2-0.3-3.4-2.3-3.1-4.3c0.3-2,2.3-3.4,4.3-3.1
			C231.5,256.7,232.9,258.6,232.6,260.7"/>
		<path class="st20" d="M230.2,264.8c0.6,2-0.6,4.1-2.6,4.6c-2,0.6-4.1-0.6-4.6-2.6c-0.6-2,0.6-4.1,2.6-4.6
			C227.6,261.6,229.6,262.8,230.2,264.8"/>
		<path class="st20" d="M237.1,264.3c-0.2,2.1-2,3.6-4.1,3.4c-2.1-0.2-3.6-2-3.4-4.1c0.2-2.1,2-3.6,4.1-3.4
			C235.8,260.4,237.3,262.2,237.1,264.3"/>
		<path class="st20" d="M228.3,271.5c-0.2,2.1-2,3.6-4,3.5c-2.1-0.2-3.6-2-3.5-4c0.2-2.1,2-3.6,4-3.4
			C226.9,267.6,228.4,269.4,228.3,271.5"/>
		<path class="st20" d="M231.2,275.3c0.6,2-0.6,4.1-2.6,4.6c-2,0.6-4.1-0.6-4.6-2.6c-0.6-2,0.6-4.1,2.6-4.6
			C228.6,272.1,230.7,273.3,231.2,275.3"/>
		<path class="st20" d="M240.5,276.2c2,0.6,3.1,2.7,2.5,4.7c-0.6,2-2.7,3.1-4.7,2.5c-2-0.6-3.1-2.7-2.5-4.7
			C236.4,276.7,238.5,275.6,240.5,276.2"/>
		<path class="st20" d="M244,285.9c0.5,1.7-0.5,3.5-2.2,4c-1.7,0.5-3.5-0.5-4-2.2c-0.5-1.7,0.5-3.5,2.2-4
			C241.7,283.2,243.5,284.2,244,285.9"/>
		<path class="st20" d="M235.6,283.6c-1,1.8-3.2,2.4-5,1.5c-1.8-1-2.4-3.2-1.5-5c1-1.8,3.2-2.4,5-1.5
			C235.9,279.6,236.6,281.9,235.6,283.6"/>
		<path class="st20" d="M240.5,276.3c-1.3,1.6-3.7,1.8-5.3,0.4c-1.6-1.3-1.8-3.7-0.4-5.3c1.3-1.6,3.7-1.8,5.3-0.4
			C241.6,272.3,241.8,274.7,240.5,276.3"/>
		<path class="st20" d="M234.7,269c0.6,2-0.6,4.1-2.6,4.6c-2,0.6-4.1-0.6-4.6-2.6c-0.6-2,0.6-4.1,2.6-4.6
			C232.1,265.9,234.1,267,234.7,269"/>
		<path class="st20" d="M238.8,264c1.8,0.9,2.6,3.2,1.7,5c-0.9,1.8-3.2,2.6-5,1.7c-1.8-0.9-2.6-3.2-1.7-5
			C234.7,263.9,237,263.1,238.8,264"/>
		<path class="st20" d="M234.8,272.8c1.8,0.5,2.9,2.4,2.4,4.2s-2.4,2.9-4.2,2.4s-2.9-2.4-2.4-4.2S232.9,272.3,234.8,272.8"/>
		<g class="st28">
			<g>
				<defs>
					<rect id="SVGID_54_" x="190.4" y="181.4" width="79" height="67.2"/>
				</defs>
				<clipPath id="SVGID_55_">
					<use xlink:href="#SVGID_54_"  style="overflow:visible;"/>
				</clipPath>
				<g class="st29">
					<defs>
						<path id="SVGID_56_" d="M269.4,194.2l-1.4,33.9c-6.8-0.5-13.9-0.4-21.1,0.3c-22.5,2.1-42.4,9.6-56.6,20.2l2.3-57.4
							c6.1,0.2,11.2-4.1,11.4-9.8l54.7,2.2C258.6,189.2,263.3,194,269.4,194.2"/>
					</defs>
					<clipPath id="SVGID_57_">
						<use xlink:href="#SVGID_56_"  style="overflow:visible;"/>
					</clipPath>
					<defs>
						<filter id="Adobe_OpacityMaskFilter" filterUnits="userSpaceOnUse" x="163" y="149.2" width="133.7" height="131.6">
							<feColorMatrix  type="matrix" values="1 0 0 0 0  0 1 0 0 0  0 0 1 0 0  0 0 0 1 0"/>
						</filter>
					</defs>
					<mask maskUnits="userSpaceOnUse" x="163" y="149.2" width="133.7" height="131.6" id="SVGID_58_">
						<g class="st30">
							
								<linearGradient id="SVGID_59_" gradientUnits="userSpaceOnUse" x1="-2.728484e-12" y1="543.0427" x2="1" y2="543.0427" gradientTransform="matrix(-31.1496 -60.4384 -60.4384 31.1496 33060.5938 -16680.9766)">
								<stop  offset="0" style="stop-color:#FFFFFF"/>
								<stop  offset="0.2589" style="stop-color:#FDFDFD"/>
								<stop  offset="0.3896" style="stop-color:#F5F5F5"/>
								<stop  offset="0.4917" style="stop-color:#E8E8E8"/>
								<stop  offset="0.579" style="stop-color:#D5D5D5"/>
								<stop  offset="0.6568" style="stop-color:#BCBCBC"/>
								<stop  offset="0.7278" style="stop-color:#9E9E9E"/>
								<stop  offset="0.7938" style="stop-color:#7A7A7A"/>
								<stop  offset="0.8557" style="stop-color:#515151"/>
								<stop  offset="0.9122" style="stop-color:#232323"/>
								<stop  offset="0.95" style="stop-color:#000000"/>
								<stop  offset="1" style="stop-color:#000000"/>
							</linearGradient>
							<polygon class="st31" points="207,280.8 163,195.5 252.8,149.2 296.8,234.5 							"/>
						</g>
					</mask>
					
						<linearGradient id="SVGID_60_" gradientUnits="userSpaceOnUse" x1="-3.637979e-12" y1="543.0427" x2="1" y2="543.0427" gradientTransform="matrix(-31.1496 -60.4384 -60.4384 31.1496 33060.5977 -16680.9785)">
						<stop  offset="0" style="stop-color:#FFFFFF"/>
						<stop  offset="0.402" style="stop-color:#FFFFFD"/>
						<stop  offset="0.6057" style="stop-color:#FFFDF5"/>
						<stop  offset="0.7649" style="stop-color:#FFFAE8"/>
						<stop  offset="0.9001" style="stop-color:#FFF6D5"/>
						<stop  offset="0.95" style="stop-color:#FFF4CC"/>
						<stop  offset="1" style="stop-color:#FFF4CC"/>
					</linearGradient>
					<polygon class="st32" points="207,280.8 163,195.5 252.8,149.2 296.8,234.5 					"/>
				</g>
			</g>
		</g>
	</g>
	<g class="st0">
		<defs>
			<path id="SVGID_61_" d="M216.7,42.6L216.1,55c-0.1,2,1.5,3.7,3.5,3.8l33.2,1.3c2,0.1,3.7-1.5,3.8-3.5l0.5-12.5
				c0.1-2-1.5-3.7-3.5-3.8L220.5,39c-0.1,0-0.1,0-0.2,0C218.4,39,216.7,40.6,216.7,42.6"/>
		</defs>
		<clipPath id="SVGID_62_">
			<use xlink:href="#SVGID_61_"  style="overflow:visible;"/>
		</clipPath>
		
			<linearGradient id="SVGID_63_" gradientUnits="userSpaceOnUse" x1="-1.273293e-11" y1="543.085" x2="1" y2="543.085" gradientTransform="matrix(40.549 1.6367 1.6367 -40.549 -672.4948 22070.3711)">
			<stop  offset="0" style="stop-color:#FF577F"/>
			<stop  offset="3.303230e-07" style="stop-color:#FF577F"/>
			<stop  offset="1" style="stop-color:#FF884B"/>
		</linearGradient>
		<polygon class="st33" points="216.1,37.4 258.1,39.1 257.2,61.9 215.2,60.2 		"/>
	</g>
	<g class="st0">
		<defs>
			<rect id="SVGID_64_" width="544.7" height="543.1"/>
		</defs>
		<clipPath id="SVGID_65_">
			<use xlink:href="#SVGID_64_"  style="overflow:visible;"/>
		</clipPath>
		<path class="st34" d="M254.5,40.4L219.6,39c-1.3-0.1-2.4,0.8-2.7,2l40.1,1.6C256.8,41.4,255.8,40.5,254.5,40.4 M218.8,58.8
			l34.9,1.4c1.3,0.1,2.4-0.8,2.7-2l-40.1-1.6C216.5,57.8,217.6,58.8,218.8,58.8"/>
	</g>
	<g class="st0">
		<defs>
			<path id="SVGID_66_" d="M185.7,280.4c0,0,11.4,8.6,13.3,7.7c2.5-1.2,8.2-11.8,8.2-11.8c-5-88-60.2-103.3-60.2-103.3
				C138.2,245.3,185.7,280.4,185.7,280.4"/>
		</defs>
		<clipPath id="SVGID_67_">
			<use xlink:href="#SVGID_66_"  style="overflow:visible;"/>
		</clipPath>
		
			<linearGradient id="SVGID_68_" gradientUnits="userSpaceOnUse" x1="0" y1="543.1178" x2="1" y2="543.1178" gradientTransform="matrix(15.9623 -104.9224 -104.9224 -15.9623 57149.9922 8952.3896)">
			<stop  offset="0" style="stop-color:#1C257B"/>
			<stop  offset="1" style="stop-color:#6A2C9A"/>
		</linearGradient>
		<polygon class="st35" points="121,286.3 139.8,162.7 224.4,175.5 205.6,299.2 		"/>
	</g>
	<g class="st0">
		<defs>
			<rect id="SVGID_69_" width="544.7" height="543.1"/>
		</defs>
		<clipPath id="SVGID_70_">
			<use xlink:href="#SVGID_69_"  style="overflow:visible;"/>
		</clipPath>
		<g class="st36">
			<g>
				<defs>
					<rect id="SVGID_71_" x="148.1" y="177.8" width="49.3" height="107.2"/>
				</defs>
				<clipPath id="SVGID_72_">
					<use xlink:href="#SVGID_71_"  style="overflow:visible;"/>
				</clipPath>
				<path class="st37" d="M149.7,177.8L197.4,285l-13.4-8.9C184,276.2,139.1,234.9,149.7,177.8"/>
			</g>
		</g>
		<g class="st38">
			<g>
				<defs>
					<rect id="SVGID_73_" x="170.8" y="428.7" width="126.3" height="45"/>
				</defs>
				<clipPath id="SVGID_74_">
					<use xlink:href="#SVGID_73_"  style="overflow:visible;"/>
				</clipPath>
				<path class="st39" d="M297,468.9c-2.1,7.7-32.1,5.9-66.9-3.8c-34.8-9.8-61.3-23.9-59.1-31.6c2.2-7.7,32.1-5.9,66.9,3.8
					C272.6,447.1,299.1,461.2,297,468.9"/>
			</g>
		</g>
	</g>
	<g class="st0">
		<defs>
			<path id="SVGID_75_" d="M324.3,49.5l-26.3,92.6l42.7,12l26-92.7c0.5-1.9-0.7-4-2.7-4.5L329,47c-0.4-0.1-0.7-0.1-1.1-0.1
				C326.3,46.9,324.8,47.9,324.3,49.5"/>
		</defs>
		<clipPath id="SVGID_76_">
			<use xlink:href="#SVGID_75_"  style="overflow:visible;"/>
		</clipPath>
		
			<linearGradient id="SVGID_77_" gradientUnits="userSpaceOnUse" x1="-1.818989e-11" y1="543.0745" x2="1" y2="543.0745" gradientTransform="matrix(42.6681 11.9862 11.9862 -42.6681 -6197.936 23266.4434)">
			<stop  offset="0" style="stop-color:#CDFFFC"/>
			<stop  offset="1.065560e-07" style="stop-color:#CDFFFC"/>
			<stop  offset="1" style="stop-color:#FF577F"/>
		</linearGradient>
		<polygon class="st40" points="303.1,28.8 395.2,54.7 362.3,172.1 270.2,146.2 		"/>
	</g>
	<g class="st0">
		<defs>
			<path id="SVGID_78_" d="M275.3,170c-4.2,3-17.7,9.7-22.6,20.7c0,0-63.7,223.2-64.1,225c-0.7,5.2-6.8,23,21.7,35
				c28.5,12,51.6,13.1,54.3,12.9c0.3,0,0.7,0,1.3,0c4.8,0.1,18.4,0.1,24-16c6.3-18,62.1-221.5,62.8-223.6c0.7-2,3.4-15.2-5.1-30.5
				c-8.5-15.2-10.4-27.3-9.6-30.2l-42.6-12C291.9,157.2,279.4,166.9,275.3,170"/>
		</defs>
		<clipPath id="SVGID_79_">
			<use xlink:href="#SVGID_78_"  style="overflow:visible;"/>
		</clipPath>
		
			<linearGradient id="SVGID_80_" gradientUnits="userSpaceOnUse" x1="-9.094947e-13" y1="543.0743" x2="1" y2="543.0743" gradientTransform="matrix(102.7659 28.8686 28.8686 -102.7659 -15455.2119 56104.1055)">
			<stop  offset="0" style="stop-color:#CDFFFC"/>
			<stop  offset="1.065560e-07" style="stop-color:#CDFFFC"/>
			<stop  offset="1" style="stop-color:#FF577F"/>
		</linearGradient>
		<polygon class="st41" points="194.5,106 437.5,174.3 343.4,509.2 100.4,441 		"/>
	</g>
	<g class="st0">
		<defs>
			<rect id="SVGID_81_" width="544.7" height="543.1"/>
		</defs>
		<clipPath id="SVGID_82_">
			<use xlink:href="#SVGID_81_"  style="overflow:visible;"/>
		</clipPath>
		<path class="st42" d="M241.7,430.9c-13.7-4.4-32.4-8.4-53.7-2.1c1.5,8.7,8.5,16.2,22.3,22c28.5,12,51.6,13.1,54.3,12.9
			c2.1-0.2,12.7,1.2,20.2-7C267.7,439.3,255.8,435.4,241.7,430.9"/>
		<g class="st43">
			<g>
				<defs>
					<rect id="SVGID_83_" x="187.6" y="151.4" width="129.7" height="299.9"/>
				</defs>
				<clipPath id="SVGID_84_">
					<use xlink:href="#SVGID_83_"  style="overflow:visible;"/>
				</clipPath>
				<path class="st44" d="M279.5,207.9c8.4-29.4,29.6-20.7,37.7-50.3l-0.7-0.2l-21.2-6c-3.5,5.8-16,15.5-20.1,18.5
					c-4.2,3-17.7,9.7-22.5,20.7c0,0-63.7,223.2-64.1,225c-0.7,5.2-6.8,23,21.7,35c0.5,0.2,1,0.4,1.5,0.6
					C228.1,392.6,272.1,234.2,279.5,207.9"/>
			</g>
		</g>
		<g class="st45">
			<g>
				<defs>
					<rect id="SVGID_85_" x="261.2" y="156.9" width="84.4" height="301.9"/>
				</defs>
				<clipPath id="SVGID_86_">
					<use xlink:href="#SVGID_85_"  style="overflow:visible;"/>
				</clipPath>
				<path class="st46" d="M345.4,214.4c0,0-61.9,223.8-62.4,225.5c-1.7,3.9-4.7,16.5-21.7,18.9c17.5-61.4,60.7-213.5,67.9-239.3
					c8.2-29.5-14.5-33.1-6-62.6l6.3,1.8c0,6.8,5.6,21.5,7.5,26.3C338.9,189.7,347,202.5,345.4,214.4"/>
			</g>
		</g>
		
			<rect x="313.1" y="130.6" transform="matrix(0.2704 -0.9627 0.9627 0.2704 84.9525 417.5745)" class="st42" width="9.7" height="44.3"/>
		<g class="st47">
			<g>
				<defs>
					<rect id="SVGID_87_" x="198.1" y="213.2" width="162" height="218"/>
				</defs>
				<clipPath id="SVGID_88_">
					<use xlink:href="#SVGID_87_"  style="overflow:visible;"/>
				</clipPath>
				<g class="st48">
					<defs>
						<rect id="SVGID_89_" x="198.1" y="213.2" width="162" height="218"/>
					</defs>
					<clipPath id="SVGID_90_">
						<use xlink:href="#SVGID_89_"  style="overflow:visible;"/>
					</clipPath>
					<g style="clip-path:url(#SVGID_90_);">
						
							<image style="overflow:visible;" width="162" height="218" xlink:href="53955805.png"  transform="matrix(1 0 0 1 198.1105 213.1559)">
						</image>
					</g>
				</g>
			</g>
		</g>
		<path class="st49" d="M328.3,239.7l-65.1-18.3c-1.9,6.7-9.3,10.5-16.5,8.5l-40.6,144.4c7.2,2,11.6,9.1,9.7,15.8l65.1,18.3
			c1.9-6.7,9.3-10.5,16.5-8.5L338,255.5C330.7,253.5,326.4,246.4,328.3,239.7"/>
		<path class="st42" d="M237.3,362.7c0.4,0,0.8,0.1,1.4,0.3c0.7,0.2,1.2,0.5,1.4,0.9c0.2,0.4,0.3,0.8,0.2,1.3
			c-0.1,0.5-0.4,0.9-0.8,1.1c-0.5,0.3-1.2,0.3-1.9,0.1c-0.2-0.1-0.4-0.1-0.6-0.2l-0.6,2.2l-0.7-0.2L237.3,362.7z M237.2,365.6
			c0.1,0.1,0.3,0.2,0.6,0.2c0.9,0.2,1.5,0,1.7-0.8c0.2-0.7-0.2-1.2-1-1.5c-0.3-0.1-0.6-0.1-0.7-0.1L237.2,365.6z"/>
		<path class="st42" d="M241.6,364c0.4,0,0.9,0.1,1.4,0.3c0.8,0.2,1.2,0.5,1.5,0.9c0.2,0.3,0.3,0.8,0.1,1.2
			c-0.2,0.7-0.8,1.1-1.4,1.1l0,0c0.4,0.3,0.5,0.7,0.5,1.4c0,0.8-0.1,1.4,0,1.7l-0.7-0.2c0-0.2,0-0.7,0-1.4c0.1-0.8-0.2-1.2-0.8-1.4
			l-0.7-0.2l-0.7,2.4l-0.7-0.2L241.6,364z M241.6,366.7l0.7,0.2c0.8,0.2,1.4-0.1,1.5-0.7c0.2-0.7-0.2-1.2-1-1.4
			c-0.3-0.1-0.6-0.1-0.7-0.1L241.6,366.7z"/>
		<polygon class="st42" points="248,368.9 245.9,368.3 245.3,370.3 247.7,371 247.5,371.6 244.5,370.7 246,365.1 249,365.9 
			248.8,366.6 246.6,365.9 246.1,367.7 248.2,368.3 		"/>
		<path class="st42" d="M253.8,370.7c0.2-0.8,0.4-1.7,0.6-2.4l0,0c-0.4,0.6-0.8,1.2-1.3,1.9l-1.7,2.4l-0.5-0.2l-0.1-2.9
			c0-0.9-0.1-1.6,0-2.4l0,0c-0.2,0.7-0.5,1.6-0.8,2.5L249,372l-0.7-0.2l2-5.5l0.9,0.3l0.2,3c0,0.8,0,1.4,0,2l0,0
			c0.3-0.5,0.7-1.1,1.1-1.7l1.7-2.4l0.9,0.3l-1.2,5.7l-0.7-0.2L253.8,370.7z"/>
		
			<rect x="253.3" y="370.6" transform="matrix(0.2705 -0.9627 0.9627 0.2705 -170.2739 517.2659)" class="st42" width="5.8" height="0.7"/>
		<path class="st42" d="M259.3,368.8l-0.9,3.3c-0.4,1.3,0,1.9,0.8,2.1c0.8,0.2,1.5-0.2,1.8-1.4l0.9-3.3l0.7,0.2l-0.9,3.3
			c-0.5,1.7-1.6,2.2-2.8,1.8c-1.1-0.3-1.8-1.2-1.3-3l0.9-3.3L259.3,368.8z"/>
		<path class="st42" d="M267.6,374.6c0.2-0.8,0.4-1.7,0.6-2.4l0,0c-0.4,0.6-0.8,1.2-1.3,1.9l-1.7,2.4l-0.5-0.2l-0.1-2.9
			c0-0.9-0.1-1.6,0-2.4l0,0c-0.2,0.7-0.5,1.6-0.8,2.5l-0.8,2.4l-0.7-0.2l2-5.5l0.9,0.3l0.2,3c0,0.8,0,1.4,0,2l0,0
			c0.3-0.5,0.7-1.1,1.1-1.7l1.7-2.4l0.9,0.3l-1.2,5.7l-0.7-0.2L267.6,374.6z"/>
		<path class="st42" d="M243.7,381.5c-1.2-0.7-2.4-1.5-3.4-2.2c-0.2-0.1-0.4-0.3-0.5-0.3c-2.3-0.7-3.7-3-2.8-6.2
			c0.9-3.2,3.3-4.7,5.9-3.9c2.6,0.7,3.7,3.3,2.9,6.2c-0.7,2.5-2.3,3.8-4.1,3.9l0,0.1c0.9,0.5,1.9,1,2.6,1.4L243.7,381.5z
			 M244.5,374.8c0.6-2,0.1-4.3-1.9-4.9c-2.1-0.6-3.7,1.1-4.3,3.2c-0.6,2.1,0,4.3,1.9,4.8C242.2,378.5,243.8,377,244.5,374.8"/>
		<path class="st42" d="M252.3,380.2c-0.2,0.7-0.4,1.4-0.5,1.9l-1.1-0.3l0.3-1.2l0,0c-0.5,0.5-1.4,1-2.7,0.7
			c-1.1-0.3-2.2-1.3-1.5-3.8l1.2-4.1l1.3,0.4l-1.1,3.9c-0.4,1.3-0.2,2.4,0.9,2.7c0.8,0.2,1.6-0.2,2-0.7c0.1-0.2,0.2-0.4,0.3-0.6
			l1.2-4.3l1.3,0.4L252.3,380.2z"/>
		<path class="st42" d="M257.7,383.8l0.2-0.9l0,0c-0.5,0.4-1.4,0.7-2.4,0.5c-1.4-0.4-1.8-1.6-1.5-2.6c0.5-1.7,2.2-2.2,4.9-1.5l0-0.1
			c0.2-0.6,0.3-1.7-1.1-2.1c-0.6-0.2-1.4-0.2-1.9,0l0-0.9c0.7-0.2,1.6-0.2,2.5,0c2.1,0.6,2.2,2.2,1.8,3.6l-0.7,2.6
			c-0.2,0.6-0.3,1.2-0.4,1.7L257.7,383.8z M258.5,380.2c-1.4-0.4-3-0.6-3.4,0.8c-0.2,0.8,0.2,1.4,0.8,1.6c0.9,0.3,1.6-0.2,2-0.7
			c0.1-0.1,0.1-0.3,0.2-0.4L258.5,380.2z"/>
		
			<rect x="257.5" y="379" transform="matrix(0.2707 -0.9627 0.9627 0.2707 -173.8135 529.936)" class="st42" width="10.8" height="1.3"/>
		<path class="st42" d="M268.1,377c-0.1,0.4-0.5,0.7-1,0.6c-0.4-0.1-0.7-0.6-0.5-1c0.1-0.5,0.6-0.7,1-0.6
			C268,376.1,268.2,376.5,268.1,377 M264.1,385.6l2-7.1l1.3,0.4l-2,7.1L264.1,385.6z"/>
		<path class="st42" d="M271.5,377.9l-0.6,2l1.8,0.5l-0.3,1l-1.8-0.5l-1.1,3.8c-0.2,0.9-0.1,1.4,0.6,1.6c0.3,0.1,0.6,0.1,0.8,0.1
			l-0.2,1c-0.3,0-0.7,0-1.2-0.1c-0.6-0.2-1-0.5-1.2-0.9c-0.3-0.5-0.2-1.1,0-2l1.1-3.9l-1.1-0.3l0.3-1l1.1,0.3l0.5-1.7L271.5,377.9z"
			/>
		<path class="st42" d="M274.8,381l0.3,4.6c0,0.5,0,1.1,0,1.6l0,0c0.2-0.4,0.5-0.9,0.9-1.3l2.5-3.8l1.3,0.4l-3.3,4.5
			c-1.6,2.2-2.5,3.2-3.6,3.8c-0.8,0.4-1.4,0.4-1.8,0.4l0-1.2c0.3,0,0.8-0.1,1.3-0.3c0.4-0.2,1-0.6,1.5-1.1c0.1-0.1,0.2-0.2,0.2-0.3
			c0-0.1,0-0.2,0-0.4l-0.7-7.2L274.8,381z"/>
		<path class="st42" d="M332.3,259c-6.9-1.9-11-8.7-9.2-15.1l0.2-0.6l-57.7-16.2l-0.2,0.6c-1.8,6.4-8.8,10-15.7,8.1l-0.7-0.2
			l-37.9,134.9l0.7,0.2c6.9,1.9,11,8.7,9.2,15.1l-0.2,0.6l57.7,16.2l0.2-0.6c1.8-6.4,8.8-10,15.7-8.1l0.7,0.2l37.9-134.9L332.3,259z
			 M294.1,392.5c-7.1-1.7-14.3,2-16.5,8.5l-55.1-15.5c1.5-6.7-2.7-13.5-9.7-15.8L250,237.2c7.1,1.7,14.3-2,16.5-8.5l55.1,15.5
			c-1.5,6.7,2.7,13.5,9.7,15.8L294.1,392.5z"/>
		<path class="st42" d="M285.8,244.8c-1.5-1.2-3.3-1.1-5.1-0.7c-2,0.6-3.8,1.9-5.7,2.6c-1.8,0.7-4.8,1.4-5.9-0.7
			c-0.8-1.5,0.2-4.4,2-4.6c0.8-0.1,1.4,0.5,1.8,1.1c0.2,0.4,0.1,1-0.1,1.4c-0.3,0.6-1.6,0.4-1.2-0.4c0.3-0.6-0.5-1.1-0.9-0.5
			c-0.9,1.6,0.9,2.7,2.2,2c1.5-0.8,1.1-2.9,0.2-3.9c-1.1-1.1-2.7-1-3.8,0c-1.3,1.1-1.9,3.2-1.4,4.8c0.6,1.9,2.4,2.4,4.2,2.3
			c2.1-0.1,3.9-1,5.7-1.9c1.9-1,4-2.1,6.1-1.5c1.8,0.4,3.1,2.7,1.7,4.2c-0.9,1-2.4,0.9-3.4,0c-0.5-0.4-0.9-1.1-0.7-1.8
			c0.1-0.4,0.8-0.4,1.1-0.3c0.2,0,0.3,0.1,0.4,0.2c0,0,0.1,0.3,0.1,0.4c-0.3-0.2-0.9,0.1-0.7,0.6c0.2,0.6,0.8,0.7,1.3,0.3
			c0.5-0.5,0.6-1.2,0.3-1.8c-0.7-1.4-3.2-1-3.5,0.5c-0.3,1.6,1.3,3.1,2.6,3.5c1.5,0.4,3.3-0.5,3.8-2
			C287.7,247.4,287,245.8,285.8,244.8"/>
		<path class="st42" d="M289.6,247c-0.2-2.2-1.8-4.1-3.7-5c-0.6-0.3-1.1,0.6-0.5,0.9c1.5,0.7,2.7,1.9,3.1,3.5
			c0.2,0.9,0.2,1.8-0.1,2.7c-0.3,0.9-1,2-1.9,2.2c-0.6,0.1-0.4,1.1,0.2,1c1-0.2,1.7-1.1,2.2-1.9C289.5,249.4,289.7,248.2,289.6,247"
			/>
		<path class="st42" d="M296.8,247.9c1.9-0.2,3.4,0.8,4.7,2.1c1.4,1.5,2.2,3.6,3.5,5.2c1.1,1.5,3.4,3.7,5.4,2.5
			c1.5-0.9,2.1-3.9,0.6-5c-0.6-0.5-1.5-0.4-2.1,0c-0.4,0.3-0.6,0.8-0.6,1.2c0,0.7,1.1,1.2,1.2,0.3c0-0.7,1-0.7,1,0
			c-0.1,1.8-2.2,1.9-3,0.6c-0.9-1.4,0.5-3,1.8-3.4c1.5-0.4,2.8,0.6,3.3,2c0.5,1.6-0.1,3.7-1.3,4.8c-1.5,1.3-3.3,0.8-4.8-0.2
			c-1.7-1.2-2.8-2.9-3.9-4.6c-1.1-1.8-2.3-3.8-4.4-4.5c-1.7-0.5-4,0.7-3.6,2.7c0.3,1.4,1.6,2,2.8,1.8c0.6-0.1,1.3-0.5,1.5-1.1
			c0.1-0.4-0.5-0.7-0.8-0.8c-0.2-0.1-0.3-0.1-0.5,0c0,0-0.3,0.2-0.3,0.3c0.4,0,0.7,0.5,0.3,0.9c-0.4,0.4-1.1,0.1-1.2-0.4
			c-0.2-0.7,0.1-1.3,0.7-1.6c1.3-0.8,3.2,0.8,2.7,2.2c-0.5,1.6-2.7,2-4.1,1.6c-1.5-0.4-2.5-2.2-2.2-3.7
			C293.9,249.1,295.3,248.1,296.8,247.9"/>
		<path class="st42" d="M292.4,247.8c1.3-1.8,3.7-2.6,5.8-2.3c0.6,0.1,0.6,1.1,0,1c-1.7-0.2-3.3,0.2-4.5,1.4
			c-0.7,0.6-1.1,1.5-1.3,2.4c-0.2,0.9-0.2,2.2,0.5,2.9c0.5,0.4-0.2,1.1-0.7,0.7c-0.8-0.7-0.9-1.8-0.9-2.8
			C291.2,249.9,291.7,248.8,292.4,247.8"/>
		<path class="st42" d="M291.8,242.8l-2.7,9.7c-0.2,0.6,0.8,0.9,1,0.3l2.7-9.7C292.9,242.4,291.9,242.1,291.8,242.8"/>
		<path class="st42" d="M290.5,243.4c-0.2-0.7-0.5-1.4-0.8-2c-0.3-0.5-1.2-0.1-0.9,0.5c0.3,0.5,0.6,1.1,0.8,1.8
			C289.7,244.3,290.7,244,290.5,243.4"/>
		<path class="st42" d="M293.4,240.9C293.4,240.9,293.4,240.8,293.4,240.9c0-0.1,0-0.1,0-0.2c0,0,0-0.1,0-0.1c0,0,0.1-0.2,0,0
			c0.1-0.1,0.1-0.2,0.1-0.4c0-0.1-0.1-0.2-0.2-0.3c-0.2-0.1-0.6-0.1-0.7,0.2c-0.1,0.3-0.2,0.5-0.2,0.8c0,0.3,0.2,0.5,0.5,0.5
			C293.2,241.4,293.4,241.2,293.4,240.9"/>
		<path class="st42" d="M295.3,242.3c-0.7,0.3-1.3,0.8-1.8,1.5c-0.4,0.5,0.5,1.1,0.9,0.5c0.3-0.5,0.8-0.9,1.4-1.1
			C296.3,242.9,295.9,242,295.3,242.3"/>
		<polygon class="st42" points="274.7,254.1 275,255.6 276.4,256.3 275.1,257 274.9,258.6 273.8,257.5 272.3,257.8 272.9,256.4 
			272.2,255.1 273.7,255.3 		"/>
		<polygon class="st42" points="280.8,255.8 281,257.3 282.5,258 281.1,258.7 280.9,260.3 279.8,259.2 278.3,259.5 279,258.1 
			278.2,256.8 279.7,257 		"/>
		<polygon class="st42" points="295.4,259.9 295.6,261.4 297.1,262.1 295.7,262.8 295.5,264.4 294.4,263.3 292.9,263.6 293.6,262.2 
			292.8,260.9 294.3,261.1 		"/>
		<polygon class="st42" points="301.4,261.6 301.7,263.1 303.1,263.8 301.7,264.5 301.6,266 300.5,265 298.9,265.3 299.6,263.9 
			298.8,262.6 300.4,262.8 		"/>
		<polygon class="st42" points="288.9,255.1 289.3,257.6 291.7,258.7 289.4,260 289.2,262.6 287.3,260.8 284.7,261.3 285.8,258.9 
			284.5,256.7 287.1,257 		"/>
		<path class="st42" d="M251.2,283.7l0.7-22.6l2.8,0.8l-0.5,11.4c-0.1,2.8-0.3,5.6-0.5,7.8l0.1,0c0.9-2,2.3-4.3,3.8-6.9l5.8-9.9
			l2.8,0.8l-0.5,11.5c-0.1,2.7-0.3,5.3-0.6,7.7l0.1,0c1.1-2.2,2.3-4.4,3.7-6.9l5.7-9.9l2.7,0.8l-11.8,19.5l-2.8-0.8l0.5-11.8
			c0.1-2.9,0.3-5.1,0.6-7.3l-0.1,0c-1,2-2,3.9-3.5,6.5l-6.1,10.2L251.2,283.7z"/>
		<path class="st42" d="M281.7,271.3c-0.2,1-1.1,1.5-2.2,1.2c-1-0.3-1.4-1.2-1.2-2.2c0.3-1,1.2-1.5,2.2-1.3
			C281.6,269.4,282,270.3,281.7,271.3 M273.2,289.9l4.3-15.2l2.7,0.8l-4.3,15.2L273.2,289.9z"/>
		<path class="st42" d="M283.5,280.9c0.4-1.6,0.8-2.9,1-4.1l2.4,0.7l-0.6,2.6l0.1,0c1.1-1.2,3.3-2.2,5.7-1.5
			c2.1,0.6,4.9,2.7,3.4,7.9l-2.5,9.1l-2.7-0.8l2.5-8.8c0.7-2.4,0.4-4.7-2.2-5.5c-1.8-0.5-3.5,0.4-4.4,1.8c-0.2,0.3-0.4,0.8-0.5,1.2
			l-2.6,9.1l-2.7-0.8L283.5,280.9z"/>
		<path class="st42" d="M301,290.1c-1,3.8,0.9,6,3.6,6.7c1.9,0.5,3.2,0.5,4.3,0.4l-0.1,2.1c-1.1,0.2-2.8,0.2-5.2-0.4
			c-4.6-1.3-6.5-5.1-5.2-9.7c1.3-4.6,4.9-7.5,9.3-6.2c4.9,1.4,4.9,6.1,4.1,8.9c-0.2,0.6-0.3,1-0.5,1.3L301,290.1z M309.5,290.3
			c0.5-1.8,0.6-4.7-2.5-5.5c-2.7-0.8-4.7,1.5-5.4,3.3L309.5,290.3z"/>
		<path class="st42" d="M267.9,311.3c0,0,0-0.1,0-0.1c0.3,0,0.5,0,0.9-0.1c-0.1-0.1-0.3-0.3-0.4-0.4c0.2,0,0.4-0.1,0.7-0.1
			c-0.1-0.1-0.3-0.3-0.4-0.4c0.4-0.4,0.8-0.7,1.3-1.1c-0.4-0.1-0.8-0.2-1-0.2c0-0.4,0-0.7,0-1c0-0.3,0.1-0.5,0.2-0.8
			c0.1-0.3,0.3-0.6,0.4-1c-0.5,0.2-0.8,0.4-1.2,0.6c0,0-0.1-0.1-0.1-0.1c0.1-0.3,0.3-0.6,0.4-0.9c0.1-0.3,0-0.6,0-0.9
			c-0.2,0-0.4,0-0.7,0c0.3-0.5,0.6-0.9,0.8-1.3c-0.1-0.1-0.1-0.1-0.2-0.2c-0.6,0.4-1.1,0.9-1.7,1.3c-0.1,0.1-0.3,0.1-0.5,0.1
			c-0.2,0.1-0.4,0.2-0.5,0.3c-0.3,0.3-0.5,0.7-0.8,1c-0.3,0.4-0.7,0.5-1,0.1c-0.4-0.4-0.1-0.7,0.2-0.9c0.4-0.3,0.8-0.5,1.1-0.8
			c0.1-0.1,0.2-0.2,0.3-0.3c-0.1-0.1-0.2-0.1-0.4-0.3c0.2-0.2,0.3-0.4,0.5-0.6c0.3-0.3,0.3-0.5-0.1-0.7c0.2-0.2,0.3-0.4,0.5-0.7
			c-0.2,0-0.4,0-0.7,0c0.2-0.2,0.3-0.4,0.4-0.6c-0.2,0-0.3-0.1-0.5-0.1c-0.1-0.4-0.2-0.8-0.4-1.3c-0.3,0.5-0.6,0.9-0.9,1.3
			c0,0-0.1-0.1-0.1-0.1c0-0.1-0.1-0.2,0-0.3c0.3-0.5-0.2-0.7-0.4-1c-0.2-0.2-0.5-0.4-0.8-0.7c-0.1,0.1-0.2,0.3-0.4,0.6
			c-0.1-0.2-0.2-0.4-0.3-0.6c0,0-0.1,0.1-0.1,0.1c-0.3-0.2-0.6-0.5-1-0.8c-0.1,0.2-0.2,0.4-0.4,0.8c-0.3-0.4-0.6-0.7-0.9-1.1
			c-0.1,0.1-0.1,0.2-0.2,0.3c-0.2-0.3-0.5-0.5-0.8-0.1c-0.5-0.3-1-0.6-1.5-0.8c-0.3-0.1-0.4,0.1-0.3,0.3c0.1,0.4,0.2,0.9,0.3,1.1
			c-0.3,0.4-0.5,0.7-0.7,1c0.2,0.6,1.6,1,0.5,2c-0.1-0.3-0.2-0.8-0.7-0.3c0,0-0.3-0.1-0.4-0.3c-0.2-0.2-0.4-0.5-0.6-0.8
			c-0.1,0-0.1,0-0.2,0c-0.1,0.5-0.2,1.1-0.3,1.6c-0.1,0-0.1,0-0.2,0c-0.1-0.2-0.3-0.5-0.4-0.8c-0.1,0-0.3,0.1-0.5,0.2
			c-0.3-0.5-0.5-0.9-0.9-1.5c-0.1,0.4-0.1,0.7-0.1,1.1c-0.2-0.2-0.2-0.4-0.3-0.5c0,0,0,0.1-0.1,0.1c-0.2-0.1-0.4-0.3-0.7-0.3
			c-0.2,0-0.4,0.2-0.7,0.3c-0.1-0.1-0.2-0.3-0.4-0.3c-0.1,0-0.3,0.2-0.5,0.5c-0.3-0.3-0.6-0.6-0.9-0.9c-0.1,0.1-0.2,0.2-0.2,0.2
			c0.1,0.4,0.4,0.9-0.2,1.3c0,0,0,0.1,0,0.1c0.4,0.7-0.2,0.8-0.7,0.9c0.3,0.2,0.5,0.4,0.8,0.7c-0.4,0.1-0.7,0.2-1,0.3
			c0.2,0.2,0.4,0.4,0.6,0.7c-0.2,0-0.4,0.1-0.6,0.1c0.3,0.3,0.5,0.5,0.8,0.8c-1.5,0.6,0.4,0.7,0.1,1.2c-0.3,0.1-0.6,0.2-1.1,0.3
			c0.3,0.3,0.5,0.4,0.7,0.6c0.1,0.1,0.2,0.3,0.3,0.5c0.1,0.1,0.2,0.3,0.3,0.3c0.2,0.1,0.5,0.3,0.8,0.5c-0.6,0.2-1.2,0.4-1.9,0.6
			c0,0,0,0.1-0.1,0.1c0.8,0.3,0.8,1,0.7,1.6c0.2,0.1,0.5,0.2,0.7,0.3c0,0.1,0,0.1-0.1,0.2c-0.2,0-0.5-0.1-0.8-0.1
			c0,0.2,0.1,0.3,0.1,0.5c-0.3,0-0.6,0-0.9,0.1c-0.2,0.1-0.3,0.3-0.5,0.5c0,0,0.1,0.1,0.1,0.1c-0.3,0.1-0.6,0.2-0.9,0.3
			c0.1,0.1,0.3,0.2,0.4,0.3c-0.5,0.2-0.9,0.4-1.4,0.6c0.4,0.5,1.4-0.1,1.2,0.9c0.2,0,0.5,0.1,0.8,0.1c-0.2,0.3-0.3,0.5-0.5,0.9
			c0.4-0.1,0.7-0.1,1-0.2c-0.4,0.9-0.3,0.9,0.5,0.9c0.2,0,0.4,0,0.7,0c-0.1,0.5-0.2,0.9-0.3,1.2c0.3,0.2,0.6,0.3,1,0.4
			c0,0.1,0,0.2,0,0.5c0.2-0.2,0.4-0.3,0.6-0.4c0.1,0,0.1,0,0.2,0c-0.1,0.5-0.2,1-0.3,1.4c0.1,0.1,0.1,0.1,0.2,0.2
			c0.3-0.2,0.6-0.3,0.9-0.5c0,0.1,0,0.1,0,0.2c0.3,0.1,0.7,0.3,1,0.3c0.1,0,0.2-0.4,0.4-0.6c0.3-0.5,0.6-1,1-1.5
			c0.1-0.1,0.3-0.2,0.5-0.3c-0.1,1.1-0.8,1.7-1.5,2.4c0.5,0.7-0.2,1.3-0.1,2c0.7,0.1,0.8-0.7,1.4-0.7c0.4,0.6,0.5-0.2,0.9-0.3
			c0.1,0.4,0.1,0.7,0.2,1.1c0.2-0.3,0.3-0.5,0.5-0.8c0.2,0.2,0.4,0.3,0.6,0.5c0.2-0.4,0.4-0.8,0.6-1.2c0.2,0.2,0.4,0.5,0.7,0
			c0.4,0.8,0.4,0.8,1,0.2c0.3-0.3,0.6-0.5,1-0.7c0.1,0.2,0.3,0.3,0.5,0.5c0.1-0.3,0.1-0.7,0.2-1c0.1-0.2,0.2-0.4,0.4-0.4
			c0.1,0,0.3,0.2,0.4,0.3c0.1,0.1,0.2,0.2,0.4,0.3c0.1-0.2,0.1-0.3,0.2-0.5c0-0.2,0-0.5,0-0.8c0.2,0.1,0.4,0.2,0.6,0.2
			c0-0.3-0.1-0.6-0.1-0.9c0.3,0,0.6,0,1-0.1c-0.2-0.1-0.3-0.2-0.5-0.4c0.2,0,0.4-0.1,0.6-0.1c-0.1-0.2,0-0.4-0.2-0.6
			c-0.3-0.4-0.6-0.8-0.9-1.1c-0.4-0.3-0.8-0.6-1.2-0.9c-0.6-0.4-0.6-0.6-0.3-1.4c2.1,2.4,4.1,4.8,6.2,7.1c0.1-0.1,0.2-0.2,0.2-0.2
			c0.3-0.4,0-0.7-0.2-1.1c-1.6-1.8-3.3-3.7-4.9-5.5c-0.1-0.2-0.3-0.3-0.4-0.5c0-0.1,0.1-0.1,0.1-0.2c0.4,0.2,0.7,0.3,1.1,0.5
			c0.7,0.4,1.3,0.9,2,1.3c0.7,0.3,1,0,0.8-0.8c-0.1-0.4,0.1-0.5,0.4-0.5c0.5,0,1,0.1,1.6,0.1c-0.2-0.2-0.3-0.4-0.5-0.6
			c0.4,0,0.7,0.1,1,0.1c0.2-0.2,0.3-0.3,0.5-0.5c0,0-0.1-0.1-0.2-0.3c0.5-0.1,0.9-0.2,1.4-0.3C268.7,311.9,268.3,311.6,267.9,311.3
			 M253.5,312.2c-0.1,0.4-0.4,0.6-0.8,0.5c-0.2,0-0.4-0.1-0.5-0.2c-0.5-0.3-1-0.6-1.6-1c0.8-0.2,1.6-0.3,2.3-0.1
			C253.3,311.6,253.6,311.7,253.5,312.2 M258.9,306.5c-0.4,0.1-0.7,0-0.8-0.4c-0.1-0.6,0-1.2,0-1.8c0.1,0,0.2,0,0.2,0
			c0.3,0.5,0.7,0.9,1,1.4C259.5,305.8,259.3,306.4,258.9,306.5"/>
		<path class="st42" d="M277.1,314.9c0.2,0.2,0.5,0.5,0.7,0.7c-0.1,0-0.2,0.1-0.2,0.1c0,0.1,0.1,0.3,0.1,0.4
			c0.2,0.1,0.3,0.2,0.6,0.3c-0.2,0.1-0.3,0.1-0.5,0.2c0.4,0.2,0.7,0.3,1,0.5c0.2,0.1,0.2,0.2,0.1,0.4c-0.4,0.4-0.3,0.7,0.2,0.7
			c0.5,0.1,1.1,0,1.6,0c0.3,0,0.5,0,0.8,0.1c0,0,0,0.1,0,0.1c-0.1,0-0.3,0.1-0.4,0.1c-1.6,0.5-3.2,1-4.8,1.5
			c-0.3,0.1-0.6,0.1-0.5,0.5c0,0.1,0,0.2,0.1,0.2c2-0.7,4.1-1.3,6.1-2c-0.1,0.6-0.2,0.7-0.7,0.7c-0.4,0-0.7,0-1,0.1
			c-0.3,0.1-0.6,0.2-0.9,0.3c-0.1,0-0.2,0.2-0.3,0.3c0.1,0.1,0.2,0.2,0.3,0.3c-0.2,0-0.3,0-0.4,0c0.2,0.1,0.4,0.3,0.6,0.4
			c-0.1,0.2-0.2,0.3-0.4,0.5c0.1,0,0.3,0,0.4,0.1c-0.1,0.2-0.2,0.3-0.3,0.5c0,0.1-0.1,0.2-0.1,0.3c0.1,0,0.2,0,0.3,0
			c0.1,0,0.3-0.1,0.4,0c0.1,0.1,0.1,0.3,0.1,0.4c0,0.2-0.1,0.4-0.2,0.6c0.2-0.1,0.3-0.1,0.5-0.1c0.1,0.3,0.2,0.5,0.3,0.8
			c0.1,0.6,0.1,0.6,0.7,0.3c0,0.4,0.2,0.3,0.4,0.2c0,0.3,0,0.6-0.1,0.9c0.2,0,0.4-0.1,0.5-0.1c0,0.2,0,0.4,0,0.7
			c0.2-0.2,0.3-0.4,0.5-0.6c0.2,0.2-0.1,0.7,0.4,0.5c0.3,0.3,0.1,0.8,0.6,0.9c0.3-0.4,0.1-1,0.6-1.2c-0.2-0.6-0.4-1.3-0.1-1.9
			c0.1,0.1,0.2,0.2,0.2,0.3c0,0.4,0,0.8,0,1.2c0,0.2-0.1,0.4,0,0.4c0.2,0.1,0.4,0.1,0.7,0.2c0,0,0-0.1,0.1-0.1
			c0.1,0.2,0.2,0.4,0.3,0.6c0.1,0,0.1,0,0.2,0l0.4-0.9c0,0,0.1,0,0.1,0c0.1,0.1,0.1,0.3,0.2,0.5c0.1-0.1,0.1-0.2,0.2-0.3
			c0.3,0,0.5,0.1,0.7,0.1c0.1-0.2,0.2-0.5,0.3-0.8c0.2,0.1,0.3,0.2,0.4,0.2c0.5,0.3,0.5,0.3,0.6-0.3c0.2,0.2,0.3,0.3,0.5,0.5
			c0-0.3,0-0.4,0-0.7c0.2,0.1,0.4,0.2,0.5,0.2c0.3-0.6,0.7,0,1-0.1c-0.2-0.3-0.4-0.6-0.6-0.8c0.1,0,0.2,0,0.3-0.1
			c-0.2-0.2-0.3-0.3-0.5-0.5c0,0,0.1,0,0.1,0c0-0.2,0-0.3-0.1-0.4c-0.1-0.2-0.3-0.2-0.5-0.4c0.1-0.1,0.2-0.2,0.3-0.3
			c-0.2-0.1-0.3-0.1-0.5-0.2c0,0,0-0.1,0-0.1c0.2,0,0.3,0,0.5,0.1c0.2-0.4,0.4-0.8,1-0.7c0,0,0-0.1,0-0.1c-0.3-0.3-0.6-0.7-0.9-1
			c0.3-0.1,0.5,0,0.7,0c0.1,0,0.2,0,0.3-0.1c0.1-0.1,0.2-0.2,0.3-0.2c0.2,0,0.3-0.1,0.6-0.1c-0.2-0.2-0.4-0.4-0.5-0.6
			c0-0.4,1.1,0.2,0.5-0.7c0.3-0.1,0.5-0.1,0.8-0.2c-0.1-0.1-0.2-0.2-0.3-0.3c0.2-0.1,0.4-0.1,0.6-0.2c-0.2-0.2-0.3-0.3-0.5-0.6
			c0.3-0.1,0.5-0.1,0.7-0.1c-0.3-0.2-0.6-0.5-0.1-0.8c0,0,0-0.1,0-0.1c-0.2-0.4,0.2-0.6,0.4-0.8c0-0.1,0-0.2-0.1-0.2
			c-0.3,0.1-0.6,0.1-0.9,0.2c0-0.2-0.1-0.5-0.1-0.5c-0.1,0-0.3,0-0.3,0.1c-0.1-0.2-0.2-0.3-0.3-0.4c-0.1-0.1-0.3,0-0.5,0
			c0,0,0-0.1,0-0.1c-0.1,0-0.2,0.1-0.4,0.2c0.1-0.2,0.2-0.4,0.3-0.7c-0.4,0.2-0.7,0.4-1,0.6c-0.1-0.1-0.2-0.2-0.2-0.3
			c-0.2,0.1-0.4,0.2-0.5,0.3c0,0-0.1-0.1-0.1-0.1c0.1-0.4,0.2-0.7,0.4-1.1c0,0-0.1,0-0.1-0.1c-0.2,0.1-0.4,0.2-0.6,0.2
			c-0.1,0-0.3,0-0.3,0c-0.1-0.4-0.3-0.2-0.5-0.1c-0.2-1,0.7-0.7,1-1c0-0.3,0-0.5-0.1-0.8c0.1-0.1,0.4-0.3,0.6-0.6
			c0.1-0.1,0.1-0.3-0.1-0.3c-0.4,0-0.8,0-1.2,0c0-0.3-0.2-0.3-0.5-0.2c0-0.1,0-0.2,0-0.3c-0.3,0.1-0.6,0.2-0.9,0.3
			c0-0.2,0-0.4,0.1-0.6c-0.3,0-0.6,0.1-0.9,0.1c0,0,0-0.1,0-0.1c-0.1,0.1-0.2,0.2-0.4,0.3c0-0.2,0-0.4,0-0.5
			c-0.3,0.1-0.5,0.1-0.7,0.1c-0.2,0.1-0.6,0-0.6,0.4c0,0.1-0.1,0.1-0.1,0.2c0,0-0.1,0-0.1,0c0-0.3,0-0.6-0.1-1
			c-0.3,0.2-0.5,0.4-0.7,0.6c-0.1,0-0.2-0.1-0.3-0.1c0,0.2,0,0.3,0,0.5c-0.2-0.1-0.3-0.2-0.4-0.2c0,0.2,0,0.4,0,0.6
			c-0.3-0.1-0.4,0.1-0.3,0.3c0,0.2,0,0.4,0.1,0.5c-0.1,0-0.2,0-0.3,0c0,0.1,0,0.2,0,0.3c0.1,0.3,0.3,0.6,0.4,0.8
			c0.1,0.2,0.1,0.5-0.2,0.6c-0.3,0.1-0.5-0.1-0.6-0.4c0-0.3,0-0.6-0.1-0.8c0-0.1-0.1-0.3-0.2-0.4c-0.1-0.1-0.2-0.2-0.2-0.3
			c-0.2-0.4-0.3-0.9-0.5-1.3c-0.1,0-0.1,0-0.2,0c0,0.3,0,0.7,0,1.1c-0.2-0.1-0.3-0.2-0.4-0.3c-0.1,0.2-0.3,0.3-0.3,0.5
			c-0.1,0.2-0.1,0.4-0.1,0.7c0,0-0.1,0-0.1,0c-0.1-0.2-0.3-0.5-0.5-0.8c0,0.3-0.1,0.5-0.1,0.7c0,0.2-0.1,0.4-0.2,0.5
			c-0.1,0.2-0.2,0.4-0.3,0.6c-0.1,0-0.4-0.1-0.7-0.2c0.1,0.4,0.3,0.7,0.4,1.1c-0.2,0-0.3,0.1-0.4,0.1c0.1,0.1,0.2,0.2,0.3,0.3
			c-0.2,0-0.3,0.1-0.4,0.1c0.2,0.1,0.3,0.2,0.5,0.3l0,0.1C277.8,314.9,277.5,314.9,277.1,314.9 M286.8,320.3
			c0.5,0.2,0.9,0.5,1.3,0.9c-0.4,0-0.8,0-1.2,0c-0.1,0-0.3,0-0.4-0.1c-0.3-0.1-0.4-0.3-0.3-0.6C286.3,320.2,286.5,320.3,286.8,320.3
			 M285.2,314.6c0.3-0.2,0.7-0.3,1-0.5c0,0,0.1,0.1,0.1,0.1c-0.2,0.4-0.4,0.7-0.6,1.1c-0.2,0.2-0.4,0.2-0.6,0
			C284.9,315.1,285,314.7,285.2,314.6"/>
		<path class="st42" d="M275.9,354.3c0.1,2.2-1.6,4-3.8,4.1c-2.2,0.1-4-1.6-4.1-3.8s1.6-4,3.8-4.1
			C274,350.4,275.8,352.2,275.9,354.3"/>
		<path class="st42" d="M275.3,325c-1,2.4-3.7,3.5-6.1,2.5c-2.4-1-3.5-3.7-2.5-6.1c1-2.4,3.7-3.5,6.1-2.5
			C275.1,319.9,276.3,322.6,275.3,325"/>
		<path class="st42" d="M271.2,329.3c0.1,2.6-1.9,4.7-4.5,4.8c-2.6,0.1-4.7-1.9-4.8-4.5c-0.1-2.6,1.9-4.7,4.5-4.8
			C269,324.7,271.1,326.7,271.2,329.3"/>
		<path class="st42" d="M279.7,330.6c-0.8,2.4-3.4,3.7-5.9,2.9c-2.4-0.8-3.7-3.4-2.9-5.9c0.8-2.4,3.4-3.7,5.9-2.9
			C279.2,325.6,280.5,328.2,279.7,330.6"/>
		<path class="st42" d="M267,336.8c-0.8,2.4-3.4,3.8-5.8,3c-2.4-0.8-3.8-3.4-3-5.8c0.8-2.4,3.4-3.8,5.8-3
			C266.4,331.7,267.8,334.3,267,336.8"/>
		<path class="st42" d="M269.5,342.2c0.1,2.6-1.9,4.7-4.5,4.8c-2.6,0.1-4.7-1.9-4.8-4.5c-0.1-2.6,1.9-4.7,4.5-4.8
			C267.2,337.6,269.4,339.6,269.5,342.2"/>
		<path class="st42" d="M280.3,345.9c2.2,1.3,3,4.1,1.7,6.3c-1.3,2.2-4.1,3-6.3,1.7c-2.2-1.3-3-4.1-1.7-6.3
			C275.3,345.4,278.1,344.6,280.3,345.9"/>
		<path class="st42" d="M281.7,358.6c0.1,2.2-1.6,4-3.8,4.1c-2.2,0.1-4-1.6-4.1-3.8s1.6-4,3.8-4.1
			C279.8,354.7,281.7,356.4,281.7,358.6"/>
		<path class="st42" d="M272.3,353.5c-1.7,1.9-4.5,2-6.4,0.3c-1.9-1.7-2-4.5-0.3-6.4c1.7-1.9,4.5-2,6.4-0.3
			C273.9,348.7,274,351.6,272.3,353.5"/>
		<path class="st42" d="M280.3,346c-2.1,1.5-5,1.1-6.5-1c-1.5-2.1-1.1-5,1-6.5c2.1-1.5,5-1.1,6.5,1
			C282.8,341.6,282.4,344.5,280.3,346"/>
		<path class="st42" d="M275.4,335.7c0.1,2.6-1.9,4.7-4.5,4.8c-2.6,0.1-4.7-1.9-4.8-4.5c-0.1-2.6,1.9-4.7,4.5-4.8
			C273.2,331.1,275.3,333.1,275.4,335.7"/>
		<path class="st42" d="M281.8,330.8c2,1.7,2.2,4.6,0.5,6.5c-1.7,2-4.6,2.2-6.5,0.5c-2-1.7-2.2-4.6-0.5-6.5
			C276.9,329.4,279.8,329.2,281.8,330.8"/>
		<path class="st42" d="M274.5,340.2c2.1,1.1,2.8,3.7,1.7,5.8c-1.1,2.1-3.7,2.8-5.8,1.7c-2.1-1.1-2.8-3.7-1.7-5.8
			C269.8,339.8,272.4,339,274.5,340.2"/>
		<g class="st50">
			<g>
				<defs>
					<rect id="SVGID_91_" x="228" y="221.5" width="110.5" height="76.9"/>
				</defs>
				<clipPath id="SVGID_92_">
					<use xlink:href="#SVGID_91_"  style="overflow:visible;"/>
				</clipPath>
				<g class="st51">
					<defs>
						<path id="SVGID_93_" d="M338.5,255.7L327.2,296c-8-2.5-16.6-4.5-25.4-5.7c-27.7-4-53.7-0.6-73.8,8.1l19.2-68.4
							c7.2,2,14.6-1.8,16.5-8.5l65.1,18.3C327,246.5,331.3,253.6,338.5,255.7"/>
					</defs>
					<clipPath id="SVGID_94_">
						<use xlink:href="#SVGID_93_"  style="overflow:visible;"/>
					</clipPath>
					<defs>
						<filter id="Adobe_OpacityMaskFilter_1_" filterUnits="userSpaceOnUse" x="210.1" y="195.8" width="146.3" height="128.4">
							<feColorMatrix  type="matrix" values="1 0 0 0 0  0 1 0 0 0  0 0 1 0 0  0 0 0 1 0"/>
						</filter>
					</defs>
					<mask maskUnits="userSpaceOnUse" x="210.1" y="195.8" width="146.3" height="128.4" id="SVGID_95_">
						<g class="st52">
							
								<linearGradient id="SVGID_96_" gradientUnits="userSpaceOnUse" x1="0" y1="543.0372" x2="1" y2="543.0372" gradientTransform="matrix(-20.1661 -81.5677 -81.5677 20.1661 44586.3711 -10655.3027)">
								<stop  offset="0" style="stop-color:#FFFFFF"/>
								<stop  offset="0.2589" style="stop-color:#FDFDFD"/>
								<stop  offset="0.3896" style="stop-color:#F5F5F5"/>
								<stop  offset="0.4917" style="stop-color:#E8E8E8"/>
								<stop  offset="0.579" style="stop-color:#D5D5D5"/>
								<stop  offset="0.6568" style="stop-color:#BCBCBC"/>
								<stop  offset="0.7278" style="stop-color:#9E9E9E"/>
								<stop  offset="0.7938" style="stop-color:#7A7A7A"/>
								<stop  offset="0.8557" style="stop-color:#515151"/>
								<stop  offset="0.9122" style="stop-color:#232323"/>
								<stop  offset="0.95" style="stop-color:#000000"/>
								<stop  offset="1" style="stop-color:#000000"/>
							</linearGradient>
							<polygon class="st53" points="234.4,324.2 210.1,226 332.2,195.8 356.4,294 							"/>
						</g>
					</mask>
					
						<linearGradient id="SVGID_97_" gradientUnits="userSpaceOnUse" x1="-1.818989e-12" y1="543.0372" x2="1" y2="543.0372" gradientTransform="matrix(-20.1661 -81.5677 -81.5677 20.1661 44586.3711 -10655.3008)">
						<stop  offset="0" style="stop-color:#FFFFFF"/>
						<stop  offset="0.402" style="stop-color:#FFFFFD"/>
						<stop  offset="0.6057" style="stop-color:#FFFDF5"/>
						<stop  offset="0.7649" style="stop-color:#FFFAE8"/>
						<stop  offset="0.9001" style="stop-color:#FFF6D5"/>
						<stop  offset="0.95" style="stop-color:#FFF4CC"/>
						<stop  offset="1" style="stop-color:#FFF4CC"/>
					</linearGradient>
					<polygon class="st54" points="234.4,324.2 210.1,226 332.2,195.8 356.4,294 					"/>
				</g>
			</g>
		</g>
	</g>
	<g class="st0">
		<defs>
			<path id="SVGID_98_" d="M318.7,57.4l-4.6,16.5c-0.5,2,0.6,4,2.5,4.5L357.8,90c2,0.5,4-0.6,4.5-2.5L367,71c0.5-2-0.6-4-2.5-4.5
				l-41.2-11.6c-0.3-0.1-0.7-0.1-1-0.1C320.7,54.7,319.2,55.8,318.7,57.4"/>
		</defs>
		<clipPath id="SVGID_99_">
			<use xlink:href="#SVGID_98_"  style="overflow:visible;"/>
		</clipPath>
		
			<linearGradient id="SVGID_100_" gradientUnits="userSpaceOnUse" x1="9.094947e-12" y1="543.082" x2="1" y2="543.082" gradientTransform="matrix(48.2808 13.5629 13.5629 -48.2808 -7049.3965 26286.2891)">
			<stop  offset="0" style="stop-color:#FF577F"/>
			<stop  offset="3.303230e-07" style="stop-color:#FF577F"/>
			<stop  offset="1" style="stop-color:#FF884B"/>
		</linearGradient>
		<polygon class="st55" points="317.5,40.7 376.9,57.3 363.6,104.6 304.2,88 		"/>
	</g>
	<g class="st0">
		<defs>
			<rect id="SVGID_101_" width="544.7" height="543.1"/>
		</defs>
		<clipPath id="SVGID_102_">
			<use xlink:href="#SVGID_101_"  style="overflow:visible;"/>
		</clipPath>
		<path class="st56" d="M364.6,66.5l-41.5-11.7c-1.5-0.4-3.1,0.3-3.8,1.7L367,69.9C367.1,68.3,366.2,66.9,364.6,66.5 M316.5,78.4
			L358,90.1c1.5,0.4,3.1-0.3,3.8-1.7L314.1,75C314,76.5,315,78,316.5,78.4"/>
	</g>
	<g class="st0">
		<defs>
			<path id="SVGID_103_" d="M101.4,417.5c117.3,45.1,250.1,82.6,250.1,82.6c32-53.1,64.7-138.8,64.7-138.8l-131,46.8l-70.9-24.5
				l-77.8-122.7C110.2,330.5,101.4,417.5,101.4,417.5"/>
		</defs>
		<clipPath id="SVGID_104_">
			<use xlink:href="#SVGID_103_"  style="overflow:visible;"/>
		</clipPath>
		
			<linearGradient id="SVGID_105_" gradientUnits="userSpaceOnUse" x1="-3.456080e-11" y1="543.0478" x2="1" y2="543.0478" gradientTransform="matrix(52.5225 -152.05 -152.05 -52.5225 82800.5938 28985.627)">
			<stop  offset="0" style="stop-color:#B31A8F"/>
			<stop  offset="8.249462e-03" style="stop-color:#B51A8F"/>
			<stop  offset="0.1486" style="stop-color:#CF1789"/>
			<stop  offset="0.3012" style="stop-color:#E41484"/>
			<stop  offset="0.473" style="stop-color:#F31281"/>
			<stop  offset="0.6776" style="stop-color:#FB117F"/>
			<stop  offset="1" style="stop-color:#FE117E"/>
		</linearGradient>
		<polygon class="st57" points="27.6,474.6 135,163.7 490.1,286.3 382.7,597.3 		"/>
	</g>
	<g class="st0">
		<defs>
			<rect id="SVGID_106_" width="544.7" height="543.1"/>
		</defs>
		<clipPath id="SVGID_107_">
			<use xlink:href="#SVGID_106_"  style="overflow:visible;"/>
		</clipPath>
		<polygon class="st58" points="136.6,260.8 141.1,261.7 215.9,379 286,403.2 410.5,357.6 416.2,361.3 285.2,408.1 214.3,383.6 		
			"/>
		<g class="st59">
			<g>
				<defs>
					<rect id="SVGID_108_" x="107.2" y="383.5" width="244.4" height="116.6"/>
				</defs>
				<clipPath id="SVGID_109_">
					<use xlink:href="#SVGID_108_"  style="overflow:visible;"/>
				</clipPath>
				<g class="st60">
					<defs>
						<path id="SVGID_110_" d="M107.2,416.1l107.1-32.6l70.9,24.5l66.3,92.1C351.6,500.1,144.5,434.2,107.2,416.1"/>
					</defs>
					<clipPath id="SVGID_111_">
						<use xlink:href="#SVGID_110_"  style="overflow:visible;"/>
					</clipPath>
					
						<linearGradient id="SVGID_112_" gradientUnits="userSpaceOnUse" x1="-4.547474e-12" y1="543.1643" x2="1" y2="543.1643" gradientTransform="matrix(22.1543 -64.1354 -64.1354 -22.1543 35059.6914 12491.9609)">
						<stop  offset="0" style="stop-color:#FF577F"/>
						<stop  offset="1" style="stop-color:#AF0000"/>
					</linearGradient>
					<polygon class="st61" points="71.2,487.7 133.3,308.1 387.5,396 325.5,575.5 					"/>
				</g>
			</g>
		</g>
		<polygon class="st62" points="215.9,379 212.2,380.3 107.2,416.1 214.3,383.6 		"/>
		<polygon class="st62" points="286,403.2 288.9,406.8 351.6,500.1 285.2,408.1 		"/>
		<g class="st59">
			<g>
				<defs>
					<rect id="SVGID_113_" x="101.4" y="400.4" width="57.6" height="26"/>
				</defs>
				<clipPath id="SVGID_114_">
					<use xlink:href="#SVGID_113_"  style="overflow:visible;"/>
				</clipPath>
				<g class="st63">
					<defs>
						<path id="SVGID_115_" d="M159,400.4c0,0-32.8,15.1-34.2,26l-23.4-8.8L159,400.4z"/>
					</defs>
					<clipPath id="SVGID_116_">
						<use xlink:href="#SVGID_115_"  style="overflow:visible;"/>
					</clipPath>
					
						<linearGradient id="SVGID_117_" gradientUnits="userSpaceOnUse" x1="-2.728484e-12" y1="543.0457" x2="1" y2="543.0457" gradientTransform="matrix(11.6744 -33.7969 -33.7969 -11.6744 18478.9043 6766.4019)">
						<stop  offset="0" style="stop-color:#CC8BA1"/>
						<stop  offset="1" style="stop-color:#FFFFFF"/>
					</linearGradient>
					<polygon class="st64" points="93.4,423.6 107.6,382.6 167.1,403.1 152.9,444.2 					"/>
				</g>
			</g>
		</g>
		<g class="st59">
			<g>
				<defs>
					<rect id="SVGID_118_" x="316.2" y="451" width="35.4" height="49.2"/>
				</defs>
				<clipPath id="SVGID_119_">
					<use xlink:href="#SVGID_118_"  style="overflow:visible;"/>
				</clipPath>
				<g class="st65">
					<defs>
						<path id="SVGID_120_" d="M316.2,451c0,0,17.4,27.2,14.8,43.2l20.6,6L316.2,451z"/>
					</defs>
					<clipPath id="SVGID_121_">
						<use xlink:href="#SVGID_120_"  style="overflow:visible;"/>
					</clipPath>
					
						<linearGradient id="SVGID_122_" gradientUnits="userSpaceOnUse" x1="-3.274181e-11" y1="543.086" x2="1" y2="543.086" gradientTransform="matrix(11.7475 -34.0084 -34.0084 -11.7475 18797.2813 6872.9551)">
						<stop  offset="0" style="stop-color:#CC8BA1"/>
						<stop  offset="1" style="stop-color:#FFFFFF"/>
					</linearGradient>
					<polygon class="st66" points="301,494.9 319.9,440 366.7,456.2 347.8,511 					"/>
				</g>
			</g>
		</g>
	</g>
	<g class="st0">
		<defs>
			<rect id="SVGID_123_" width="544.7" height="543.1"/>
		</defs>
		<clipPath id="SVGID_124_">
			<use xlink:href="#SVGID_123_"  style="overflow:visible;"/>
		</clipPath>
		<g class="st67">
			<g>
				<defs>
					<rect id="SVGID_125_" x="177.1" y="108.3" width="49.5" height="19.8"/>
				</defs>
				<clipPath id="SVGID_126_">
					<use xlink:href="#SVGID_125_"  style="overflow:visible;"/>
				</clipPath>
				<polygon class="st68" points="177.1,128.1 226.1,120.9 226.5,108.3 178.3,114.8 				"/>
			</g>
		</g>
	</g>
</g>
</svg>
